<?xml version="1.0" encoding="utf-8" ?>
<svg baseProfile="full" height="619.8999999999994" version="1.1" width="1090.8000000000004" xmlns="http://www.w3.org/2000/svg" xmlns:ev="http://www.w3.org/2001/xml-events" xmlns:xlink="http://www.w3.org/1999/xlink"><defs /><rect fill="white" height="619.8999999999994" width="1090.8000000000004" x="0" y="0" /><path d="M25,85.09999999999854 m0.0,0.0 m41.1,53.3 l0.0,0.0 0.2,-2.4 l1.2,-10.0 2.6,-11.4 l0.8,-4.4 1.8,-5.6 l1.4,-2.8 3.6,-4.2 l3.6,-2.6 3.0,-1.6 l1.0,-0.4 4.8,5.6 l1.0,2.8 0.8,1.6 l0.6,2.4 0.8,6.8 l0.0,3.6 -0.8,4.4 l-0.6,8.6 0.0,2.6 l-0.6,4.2 -1.0,5.4 l-1.4,5.2 -0.6,1.8 l-0.6,1.4 0.0,0.2 l0.2,0.0 2.8,-2.6 l3.8,-1.8 1.2,-0.2 l3.4,-0.2 7.0,4.0 l6.0,4.2 0.2,1.0 l-1.4,6.6 -0.4,1.0 l-1.6,2.6 -6.2,7.2 l-3.4,2.6 -3.8,1.8 l-3.2,0.8 -11.4,0.6 l-10.4,0.0 -9.2,-1.2 l-11.2,-4.4 -3.8,-1.8 l-1.0,-1.0 -1.2,-1.4 l-2.6,-3.8 -1.8,-3.2 l-1.4,-3.0 -0.4,-2.0 l-0.2,-2.0 0.2,-2.4 l0.8,-2.2 0.8,-1.8 l2.8,-3.0 2.0,-0.8 l6.0,-1.4 3.8,-1.0 l3.6,-1.2 1.6,-0.4 l8.2,-0.2 m17.4,-44.8 l0.0,4.4 0.2,2.0 l0.0,1.8 m6.2,4.8 l-0.2,0.0 -1.0,1.0 l-1.4,1.0 -1.4,0.2 l-0.6,0.2 -1.6,0.0 l-0.8,0.2 -1.0,0.0 l-3.2,-1.6 -0.6,-0.6 l-1.8,-0.8 -2.2,-0.8 l-0.6,-0.4 -0.4,-1.0 l-0.6,-1.0 0.0,-0.4 m-6.6,67.8 l0.6,0.0 m17.4,-2.6 l0.4,-0.4 m7.6,-10.0 l0.8,0.2 5.6,3.4 l0.8,2.0 -2.0,1.8 m-19.8,-9.6 l0.6,-0.2 1.6,1.0 l1.8,2.2 -1.2,4.4 l-0.6,0.4 m-10.4,-12.4 l-1.8,-0.2 -6.0,0.6 l-4.2,3.4 0.0,2.6 l1.4,3.4 0.2,0.2 m-4.6,-14.8 l-1.0,0.0 -4.6,3.2 l-3.8,4.0 -0.2,3.2 l0.4,0.4 m1.4,-8.8 l-1.2,1.6 -1.6,4.6 l-0.4,5.4 1.2,2.4 l6.8,4.8 m-0.7,80.7 l0.0,0.0 0.2,-0.2 l0.0,-0.4 0.4,-1.0 l0.6,-1.0 0.6,-1.6 l0.4,-2.4 1.2,-3.6 l0.0,-1.0 0.4,-4.6 l0.4,-2.4 0.0,-1.4 l0.6,-2.0 0.8,-6.8 l0.8,-5.2 0.0,-0.8 l0.2,-2.0 0.4,-2.6 l1.4,-4.4 1.8,-2.0 l0.2,-0.4 1.0,-1.4 l2.2,-1.2 4.4,-4.0 l2.2,-2.2 4.6,-2.2 l0.6,-0.2 0.2,-0.2 l2.0,-1.0 0.6,-0.2 l3.0,0.0 0.2,0.2 l2.2,1.2 2.4,1.6 l1.6,1.6 0.8,1.2 l1.0,2.8 0.0,0.4 l0.6,1.6 0.2,1.0 l0.8,6.2 0.0,14.2 l0.2,4.8 0.2,2.0 l0.0,2.6 -0.2,2.4 l-0.8,3.6 -1.0,2.8 l-1.0,5.6 -0.2,0.6 l0.0,0.4 -0.4,2.2 l-0.4,0.8 -0.4,2.2 l-0.2,0.0 0.0,2.4 l0.4,0.6 1.8,1.0 l1.4,0.4 0.4,0.2 l0.6,0.0 2.8,2.0 l1.2,2.2 0.2,1.8 l0.0,1.0 0.8,4.6 l0.0,4.6 -0.6,2.0 l-0.4,0.6 -0.2,0.6 l-1.6,2.0 -0.8,0.8 l-1.6,0.6 -6.6,1.8 l-1.0,0.0 m-8.2,-87.2 l0.0,0.8 1.8,2.2 l0.8,0.4 2.0,0.0 l0.6,-0.2 1.4,0.0 l1.8,-0.8 m-31.4,127.1 l0.0,0.0 -0.6,0.0 l-1.0,-0.8 -1.6,-0.4 l-1.6,-0.2 -8.8,0.0 l-2.2,0.6 -0.6,0.8 l-1.2,0.4 -1.0,0.8 l-0.4,0.4 -1.4,2.2 l-0.6,1.2 -0.2,0.8 l0.0,0.8 -0.4,0.6 l0.0,5.0 0.2,1.0 l0.4,0.8 0.2,0.6 l0.6,0.8 0.6,1.0 l1.8,1.0 1.4,0.6 l2.6,1.8 0.8,0.4 l0.2,0.6 1.4,0.8 l0.6,0.6 0.8,0.2 l2.2,0.8 0.6,0.4 l1.2,0.6 0.8,0.2 l0.6,0.4 0.4,0.2 l0.2,0.0 0.6,0.6 l0.4,0.0 0.4,-1.2 l0.6,-0.8 0.2,-0.6 l3.2,0.0 0.2,0.2 l0.2,0.0 0.2,0.2 l0.4,0.2 0.6,0.6 l0.4,0.2 0.2,0.0 l0.2,0.4 0.6,0.4 l0.6,0.0 0.4,-0.2 l1.0,-1.2 0.4,-0.4 l0.6,-0.4 0.6,-1.8 l0.0,-1.2 0.2,-2.2 l0.6,-3.0 1.0,-2.6 l0.0,-1.6 -1.6,-1.2 l-1.6,-1.4 -1.4,-1.6 l-1.6,-1.4 -1.2,-1.6 l-0.4,-0.4 -0.2,0.0 l0.0,-0.2 -0.2,-0.2 l-0.6,-1.0 0.0,-0.8 m0.8,1.2 l1.6,0.0 1.0,-0.4 l1.4,0.0 1.6,-0.2 l5.0,0.0 2.4,-0.2 l2.8,0.0 4.0,-0.8 l29.2,0.0 0.6,0.2 l0.8,0.8 0.8,0.2 l1.0,0.6 1.2,1.0 l1.4,1.4 1.4,1.0 l1.0,0.6 0.8,0.8 l1.0,1.6 1.2,1.2 l0.6,1.0 0.4,1.4 l0.2,1.2 0.0,2.2 l-0.2,0.8 -0.6,1.0 l-1.2,1.2 -0.8,0.4 l-1.0,0.2 -1.0,0.8 l-1.6,0.6 -1.2,0.2 l-33.0,0.0 -2.4,-0.6 l-2.8,-0.2 -1.0,0.0 l-0.4,-0.4 -1.4,0.0 l-0.8,-0.2 -4.0,0.0 m-14.4,82.2 l0.0,0.0 4.0,0.0 l2.0,0.2 2.2,0.0 l1.8,0.2 7.0,0.0 l0.8,0.2 1.8,0.2 l23.8,0.0 m-43.2,-1.0 l-0.2,0.0 -0.2,0.2 l0.0,0.2 -0.2,0.4 l-0.2,0.2 0.0,1.2 l-0.2,0.4 0.0,0.4 l-0.2,0.8 -0.4,1.0 l0.0,0.6 -0.2,1.2 l0.0,3.4 0.4,1.8 l0.8,2.2 0.8,1.8 l1.0,2.2 1.0,1.0 l0.2,0.4 0.4,0.2 l0.4,0.4 0.4,0.2 l0.4,0.4 0.6,0.0 l0.8,0.2 0.8,0.4 l1.4,0.2 5.4,0.0 l0.4,-0.2 0.4,-1.2 l0.0,-0.8 0.4,-1.0 l0.0,-0.4 0.2,-0.4 l0.0,-3.8 m0.2,-0.2 l1.6,0.0 2.0,-0.6 l2.0,0.0 2.8,-0.4 l2.2,0.0 1.0,-0.4 l1.4,-0.2 0.8,0.0 l1.2,-0.2 3.4,0.0 l0.8,-0.4 5.4,0.0 l1.2,0.4 0.4,0.0 l0.2,0.2 0.6,0.0 l3.6,1.0 1.0,0.2 m-3.4,-12.2 l0.0,1.2 0.4,1.2 l0.4,2.0 0.4,1.2 l0.2,1.0 0.4,1.0 l0.2,1.4 0.2,0.6 l0.0,0.6 m-2.0,-10.8 l0.0,-0.2 0.4,0.0 l1.2,0.4 1.2,1.0 l1.6,1.0 0.4,0.4 l0.6,0.4 0.6,0.8 l0.8,0.8 0.4,0.0 l0.0,0.2 0.4,0.2 l0.6,1.2 0.4,0.6 l0.2,0.6 0.0,0.4 l0.4,0.8 0.0,2.0 l-0.2,0.2 -0.4,0.8 l-1.0,1.0 -1.0,0.6 l-0.6,0.2 -1.2,0.0 l-0.6,0.4 -1.8,0.0 l-0.6,-0.2 -0.2,-0.4 l-0.2,0.0 -0.2,-0.2 l-0.2,-0.4 m3.5,62.1 l0.0,0.0 0.0,0.2 l-6.6,0.0 -6.0,1.4 l-17.4,5.4 -4.0,1.8 l-1.6,1.0 -1.0,1.0 l-5.6,6.2 -2.4,2.8 l-5.4,6.6 -4.0,6.0 l-1.4,3.2 -2.8,9.4 l-0.2,2.6 -0.6,3.6 l0.0,12.0 0.2,1.4 l0.0,0.6 0.8,3.4 l0.4,0.8 0.2,0.8 l0.0,0.6 4.6,0.0 l0.4,0.2 0.8,0.0 l0.2,0.2 0.2,0.0 l0.4,0.2 0.6,0.0 l0.4,0.2 4.2,0.0 l2.0,-0.6 1.2,0.0 l0.4,-0.2 0.4,0.0 l0.2,-0.2 0.4,-0.2 l0.2,-0.8 0.4,-0.6 l0.8,-2.6 0.0,-3.2 l-0.2,-0.8 -0.2,-1.6 l0.0,-2.4 1.6,-3.4 l0.6,-0.8 0.6,-1.0 l0.8,-2.0 0.2,-1.2 l0.6,-0.8 0.0,-0.4 l0.4,-0.8 1.8,-2.8 l0.4,-1.0 1.0,-1.2 l0.6,-1.4 1.8,-2.6 l2.0,-2.2 1.0,-1.4 l1.4,-1.2 2.2,-1.6 l1.8,-1.8 0.4,-0.2 l0.4,0.0 0.0,2.8 l-0.4,0.4 -1.2,2.2 l-0.8,0.8 -1.4,2.0 l0.0,0.4 -0.8,1.8 l-0.4,2.4 0.0,4.6 l0.2,0.6 3.0,4.0 l1.4,1.6 0.6,1.0 l1.2,1.6 4.2,3.4 l0.4,0.4 4.4,3.2 l0.6,0.4 0.2,0.0 l0.2,0.2 0.0,0.2 l3.0,0.0 m1.6,-29.6 l0.0,3.0 0.6,2.2 l0.4,4.0 0.6,1.8 l0.2,4.0 0.6,1.6 l0.4,2.4 1.2,1.6 l1.4,2.2 0.4,0.8 l1.0,1.4 0.2,0.2 l1.0,0.4 0.6,0.0 l1.0,0.2 0.4,0.2 l3.4,0.0 2.2,-0.4 l0.8,0.0 1.2,-0.4 l0.2,0.0 0.0,-0.2 l0.4,-0.4 0.0,-1.0 l0.2,-0.2 0.0,-0.4 l0.2,-0.2 0.2,0.0 l0.0,-1.2 m21.2,-408.1 l0.0,0.0 2.0,-8.2 l3.4,-5.6 6.0,-7.4 l1.6,-2.6 2.6,-3.0 l1.8,-3.4 4.6,-6.6 l5.4,-9.8 1.8,-2.6 l12.4,-11.8 2.4,-1.2 l3.4,-2.4 7.0,-3.2 l4.4,-1.4 1.4,-0.8 l1.4,0.0 2.8,-0.6 l1.6,-1.0 1.2,0.0 l0.8,-0.4 4.6,0.0 l8.0,5.4 1.4,1.6 l1.4,1.0 3.4,4.0 l0.0,4.6 -1.0,6.4 l-0.6,0.8 -1.0,2.8 l-1.6,3.0 -0.4,0.2 l0.0,0.4 -3.6,1.4 l-3.6,0.4 -5.0,0.0 l-2.4,-0.4 -4.2,0.2 l-0.8,0.6 -2.0,0.4 l-0.4,0.6 -0.6,0.0 l-0.4,0.6 -0.6,0.0 l-2.0,1.2 -5.4,5.0 l-2.2,1.0 -0.8,0.6 l-0.4,0.8 -1.2,1.2 l-5.0,4.2 -2.6,3.0 l-0.4,1.0 -1.4,1.8 l-0.8,0.6 -0.8,1.4 l-1.2,1.4 -0.8,1.8 l-2.2,3.0 -0.6,1.4 l-1.2,1.6 -1.6,2.8 l-1.8,6.8 0.0,7.4 l0.2,0.0 0.0,0.6 l1.8,3.0 0.8,0.4 l0.8,1.0 0.2,0.8 l1.2,2.0 0.8,0.8 l0.2,1.0 1.2,1.6 l1.2,3.4 0.6,0.6 l0.0,0.8 0.6,0.0 l0.0,1.0 0.6,0.8 l0.4,1.6 0.0,7.4 l-0.2,0.0 -1.0,2.2 l-0.4,0.2 -1.8,2.4 l-0.6,0.4 -0.2,0.6 l-0.6,0.0 -0.8,1.0 l-0.4,0.0 -0.8,0.6 l-0.8,0.0 -0.8,0.6 l-1.2,0.2 -2.4,1.0 l-1.0,0.0 -1.4,0.6 l-5.8,0.0 -5.0,-0.8 l-1.2,0.0 -1.2,-0.6 l-1.2,0.0 -1.0,-0.8 l-1.6,-0.8 -1.2,-1.6 l-0.4,-1.6 -1.0,-2.2 l-0.4,-3.8 -0.4,-1.0 l0.0,-6.2 0.2,-1.6 l0.6,-0.6 0.0,-0.4 l0.6,-1.0 0.2,-1.2 l-0.2,-4.8 -0.6,-0.6 l0.0,-0.6 -0.6,-1.4 l-1.4,-1.6 -0.6,-1.2 l-0.4,-1.6 -1.4,-3.0 l-0.4,-1.4 0.0,-1.2 l-0.6,-1.2 m62.2,-67.2 l0.6,0.0 2.6,5.8 l0.0,6.2 0.4,1.2 l0.0,6.0 -0.8,1.8 m17.0,-19.6 l-1.8,1.2 -4.2,1.8 l-2.4,1.4 -0.8,0.2 l-0.2,0.4 -0.8,0.2 m-46.0,80.8 l0.0,0.8 2.2,4.4 m-8.4,0.8 l-0.8,2.4 -1.6,2.6 l-1.0,1.0 m7.0,2.6 l3.2,0.2 2.6,0.8 l0.4,0.4 0.6,0.0 m-50.6,44.6 l0.0,0.0 11.8,0.0 l7.2,-1.2 6.6,-1.2 l11.0,-2.4 5.0,-1.0 l9.0,-0.4 3.8,-0.4 l3.2,-0.2 5.6,-0.8 l2.8,-0.6 6.4,-1.6 l3.8,-0.8 2.4,-0.6 l1.8,-0.2 1.6,0.0 m-77.6,39.4 l3.2,0.0 4.2,-0.2 l5.2,0.0 5.6,-0.2 l5.8,-0.6 6.0,-1.0 l5.0,-1.0 4.4,-1.2 l3.8,-0.8 3.2,-0.8 l7.0,-1.2 4.0,-0.4 l4.2,-0.6 4.0,-0.2 l2.8,0.0 3.4,-0.4 l3.2,0.0 2.2,-0.6 l2.0,-0.2 2.0,-0.4 l2.8,-0.4 2.4,-0.6 m-8.4,-35.6 l1.2,1.6 1.2,1.8 l2.2,2.6 1.8,2.6 l2.2,4.6 0.8,2.6 l0.2,3.4 0.0,8.2 l0.2,2.2 1.0,2.2 l0.8,2.0 0.6,1.8 l0.8,2.8 0.2,1.4 l0.0,1.2 0.2,0.2 l0.0,0.4 0.2,0.2 l0.0,0.6 0.4,0.2 l0.0,0.2 m-12.0,-43.6 l3.6,-1.0 4.6,-0.8 l7.2,-1.0 2.4,-0.2 l2.2,-0.4 1.6,0.0 l3.4,0.4 3.4,1.0 l2.6,1.6 1.6,1.4 l1.4,1.4 2.8,5.0 l0.6,1.6 0.2,1.8 l0.2,1.0 0.0,1.8 l-0.2,0.6 -1.0,1.8 l-0.6,0.6 -0.2,0.6 l-0.2,0.0 0.0,0.2 l-0.2,0.0 m1.2,0.6 l4.4,0.6 1.2,0.0 l2.2,0.8 1.4,1.0 l0.4,1.6 0.0,3.2 l-0.4,2.2 -0.4,1.6 l0.0,0.4 -0.2,0.6 l-0.6,1.0 -2.6,3.8 l-5.6,4.8 -5.4,2.0 l-3.4,0.6 -2.4,0.6 l-2.0,0.6 -9.8,0.0 m-35.1,61.8 l0.0,0.0 0.0,-1.6 l0.2,-0.4 0.0,-0.4 l0.2,-0.2 3.6,0.0 l0.2,0.2 0.4,0.0 l0.4,0.4 0.0,0.2 l0.4,0.4 0.0,0.4 l0.2,0.2 0.0,5.2 l-0.2,0.2 0.0,1.2 l-0.2,0.6 0.0,6.2 m-9.6,0.8 l-0.4,0.6 0.0,5.8 l0.2,0.4 0.2,0.2 l0.0,0.4 1.4,1.4 l0.2,0.0 0.0,0.2 l0.4,0.0 0.2,0.2 l0.2,0.0 0.4,0.4 l0.2,0.0 0.4,0.2 l0.2,0.2 0.2,0.0 l0.2,0.2 1.0,0.2 l2.8,0.0 2.0,-1.4 l0.2,0.0 0.2,-0.6 l0.0,-0.6 0.4,-0.4 l0.0,-1.0 0.2,-0.2 l0.4,-1.0 0.0,-3.6 l-0.2,-0.4 0.0,-0.2 l-0.2,0.0 m-8.6,9.2 l-0.2,0.0 0.0,-0.2 l-0.6,-0.6 -4.6,0.0 l-0.4,0.2 -0.8,0.6 l-1.4,0.4 0.0,0.2 l-0.2,0.2 0.0,0.6 l-0.4,1.0 -0.2,0.2 l0.0,1.8 0.4,0.8 l0.0,0.4 1.2,1.4 l0.2,0.6 0.4,0.4 l0.4,0.6 2.2,2.2 l0.8,0.6 0.4,0.2 l1.0,0.2 2.2,0.0 l0.2,-0.6 0.4,-0.4 l0.4,-1.0 0.2,0.0 l0.2,-1.0 0.4,-1.0 l0.2,-0.2 0.0,-4.8 m1.6,-0.8 l0.2,0.0 0.2,0.2 l0.2,0.0 0.2,1.2 l0.4,0.6 0.2,1.4 l0.0,0.8 0.2,1.2 l0.0,0.6 0.4,0.8 l0.2,0.8 0.4,0.4 l0.0,0.4 0.6,0.6 l3.4,1.0 3.0,0.4 l1.6,0.0 1.0,-0.2 l0.8,-0.2 0.4,-0.2 l0.4,-0.4 0.6,-1.2 l0.0,-4.2 -0.2,-0.8 l-0.6,-1.2 -0.6,-1.0 l-0.4,-0.4 -0.4,-0.8 l0.0,-0.2 -0.2,-0.4 l-0.4,-0.6 -0.4,-0.4 l-0.4,-1.0 -0.2,0.0 l-0.2,-0.2 -0.2,0.0 l-1.2,-0.6 -0.8,0.0 l-0.6,-0.4 -1.2,0.0 l-0.2,-0.2 -0.4,-0.2 l-1.2,-0.4 -0.6,0.0 l-1.0,-0.4 m-10.2,-18.2 l0.0,-2.2 0.2,0.0 l0.2,-0.8 0.6,-0.6 l0.0,-0.2 3.6,0.0 m-2.6,7.2 l0.0,0.6 -0.6,0.0 l0.0,-0.4 -0.2,-0.2 l-0.2,-0.4 0.0,-0.2 l-0.4,-1.0 m1.6,7.6 l-0.4,-0.4 0.0,-0.2 l-0.2,-0.4 0.0,-0.8 l-0.6,-1.4 m0.3,91.6 l0.0,0.0 0.8,7.6 l0.6,4.4 0.4,5.0 l0.0,14.6 1.2,5.2 l0.8,2.2 0.4,0.6 l0.0,0.4 0.2,0.4 l0.4,0.4 0.0,1.6 l0.2,0.6 0.0,0.6 l0.6,0.6 0.0,0.2 l1.0,1.2 1.4,1.4 l1.2,1.0 1.4,0.6 l1.4,0.8 1.6,0.4 l1.0,0.2 0.8,0.0 l1.2,-0.2 1.0,-0.8 l1.2,-1.4 0.2,-1.2 l0.4,-0.8 0.0,-0.4 l0.4,-1.2 0.0,-0.6 l0.2,-0.4 0.2,-0.2 l0.2,-0.8 0.0,-1.2 l0.2,-0.2 0.0,-1.2 l0.2,-0.4 0.0,-0.4 l0.4,-1.0 0.0,-1.2 l0.4,-0.6 0.0,-3.4 l-0.4,-0.8 -0.6,-2.0 l0.0,-1.2 -0.2,-0.8 l-0.2,-1.6 0.0,-4.6 l-0.2,-1.2 0.0,-2.6 l-0.8,-5.2 -1.2,-6.2 l-0.2,-0.6 -0.2,-2.4 l-0.4,-1.6 0.0,-12.6 m-17.8,15.2 l0.0,-9.4 -0.6,-3.6 l-0.2,-0.4 -0.4,-1.6 m-6.0,-5.8 l-0.8,0.2 -4.6,4.0 l-5.0,5.4 -1.0,1.4 l-2.4,4.8 -0.8,3.6 l0.0,3.2 2.4,4.2 l2.0,1.8 1.4,1.0 l1.8,1.0 1.8,0.8 l2.4,0.8 0.6,0.4 l1.8,0.4 2.2,0.2 l4.2,0.0 0.2,-0.2 m23.0,-32.2 l0.0,0.6 2.2,3.6 l1.2,1.4 0.4,0.2 l0.6,0.8 2.8,2.0 l2.4,2.4 0.2,0.6 l2.0,3.2 1.4,3.0 l0.0,0.8 0.8,2.6 l0.4,2.4 0.0,4.0 l-0.2,1.4 -0.8,2.0 l-0.4,0.6 -1.6,1.0 l-2.0,0.8 -1.8,0.2 l-5.0,0.0 -1.4,-0.2 l-0.6,-0.2 -0.2,-0.2 l-0.2,0.0 -0.2,-0.6 m-8.8,23.0 l-0.2,0.0 0.0,0.6 l0.4,2.6 0.4,1.0 l0.0,1.0 0.4,0.4 l0.0,0.4 0.2,0.2 l0.2,0.4 0.4,0.0 l0.0,0.4 m-17.9,83.9 l0.0,0.0 0.0,-1.0 l-0.6,-1.0 -0.8,-2.8 l-1.0,-2.8 -1.6,-6.4 l-1.2,-3.2 -0.6,-3.2 l-1.0,-4.2 -0.6,-4.0 l-0.4,-4.2 0.0,-9.8 l0.6,-4.0 2.0,-3.8 l2.0,-2.0 0.8,-0.6 l1.0,-0.4 2.0,0.0 l1.2,0.8 0.8,0.8 l2.4,2.0 1.0,1.4 l1.4,4.2 1.0,7.4 l0.2,4.4 0.0,25.8 l0.4,3.4 0.6,2.2 l0.0,0.4 0.2,0.0 l0.0,-0.2 0.2,0.0 l0.0,-0.2 0.2,0.0 l0.0,-0.2 0.2,0.0 l0.4,-0.4 2.0,-1.6 l5.2,-4.8 1.2,-0.8 l2.0,-0.8 2.0,-0.2 l6.0,0.0 3.0,0.6 l2.4,1.4 1.0,1.2 l1.2,1.8 0.4,1.2 l0.4,1.6 0.2,2.2 l0.4,2.0 0.0,2.8 l0.2,2.8 0.0,5.2 l-0.8,0.6 -2.6,0.4 l-4.0,0.4 -7.4,0.4 l-11.4,0.0 -5.6,-1.4 l-0.6,-0.4 -0.4,0.0 l0.0,-0.2 0.0,0.6 l-0.2,0.6 0.0,0.6 l-0.2,0.6 0.0,0.8 l-0.4,0.8 0.0,1.2 l-0.6,3.4 -0.4,0.8 l-0.4,-0.4 -0.6,-1.0 l-0.4,0.0 -0.4,-0.2 l-0.4,0.0 0.0,-0.2 l3.2,-1.8 -0.2,0.0 l-1.6,0.8 -2.6,2.0 l-1.2,0.8 -2.2,1.2 l-0.4,0.4 -1.6,0.4 l-1.0,0.4 -2.2,0.4 l-0.8,0.4 -1.6,0.4 l-2.8,0.0 -0.6,-0.2 l-0.6,-0.4 -1.6,-1.6 l-1.6,-2.2 -0.2,-0.8 l0.0,-4.6 0.2,-0.8 l1.4,-2.2 2.2,-3.0 l2.4,-2.8 1.8,-1.8 l1.6,-1.2 4.0,-2.4 l1.0,-0.2 0.8,-0.4 l1.6,-0.4 2.8,0.0 m-9.0,-43.6 l7.4,1.2 4.0,-4.4 l2.4,0.0 0.2,0.2 l0.4,0.0 m99.3,-396.2 l0.0,0.0 -0.2,-0.2 l-0.4,0.2 -2.8,3.6 l-1.4,1.4 -2.4,3.2 l-3.2,3.2 -6.2,6.8 l-1.4,1.8 -2.6,2.4 l-1.0,0.6 -0.8,1.0 l-0.8,0.4 -7.2,7.0 l-1.2,1.6 -1.4,2.8 l-0.6,0.6 -0.8,1.8 l0.0,0.4 -0.6,0.8 l-0.2,0.0 0.0,0.6 l-0.4,0.0 -0.2,0.2 l-1.6,0.0 -0.6,0.4 l-2.2,2.2 -0.6,1.0 l0.0,0.4 -0.4,0.2 l-0.4,1.0 0.0,3.6 l0.8,1.4 1.6,1.4 l0.6,1.0 0.6,0.4 l0.4,0.6 2.4,1.8 l1.4,0.6 2.6,0.4 l4.0,0.0 2.4,-0.6 l1.0,-0.6 1.2,0.0 l1.2,-0.8 0.8,-0.2 l0.8,-0.6 0.4,0.0 l0.6,-1.4 0.0,-7.2 l0.6,-1.6 0.0,-0.6 l0.2,-0.4 0.4,-0.2 l0.0,-0.4 0.6,-0.4 l0.2,-0.6 0.8,-0.6 l0.8,-0.2 2.4,-1.6 l2.2,-1.0 2.0,-1.4 l0.6,-0.2 2.4,-1.4 l2.2,-1.8 1.0,-0.6 l3.8,-3.6 1.0,-0.6 l0.8,-1.2 1.0,-1.0 l0.4,-0.2 0.2,-0.4 l0.4,-0.2 0.4,-0.8 l0.8,-0.2 m28.2,-14.2 l0.2,0.0 4.4,5.6 l1.2,2.8 0.4,1.4 l0.0,1.4 0.6,1.6 l0.0,7.8 -0.2,1.0 l-0.4,0.2 -0.2,0.4 l-0.6,0.4 -0.8,1.0 l-5.2,1.8 -3.2,0.4 l-1.6,0.6 -1.2,0.0 l-1.6,0.6 -5.6,0.0 l-2.4,-1.0 -0.6,0.0 l-1.0,-0.8 -1.4,-0.6 l-0.2,-0.4 -0.4,-0.2 l-3.2,-4.0 -0.8,-0.8 l-0.4,0.0 0.0,-0.4 l-0.8,-0.6 0.0,-0.6 l-0.6,-0.8 0.0,-1.2 m-10.2,7.6 l-0.2,0.0 0.0,0.8 l0.8,1.6 0.6,0.2 l0.2,0.6 5.8,0.0 l0.4,-0.2 0.4,-0.6 l0.4,0.0 0.0,-0.4 l1.4,-1.6 0.2,-0.8 m21.2,-6.0 l0.6,0.0 0.8,0.8 l1.4,2.4 0.6,0.6 l0.6,1.2 m-1.2,-12.0 l0.4,0.0 2.0,1.2 l1.6,1.4 0.8,1.2 m-16.2,7.6 l1.0,4.2 0.2,1.8 l0.6,1.6 0.0,0.8 l0.2,0.0 m14.8,-10.8 l3.0,0.0 2.0,0.2 l1.8,1.0 3.6,2.8 l0.4,0.8 0.0,0.4 m-78.6,20.0 l-0.2,0.8 -0.2,0.2 l0.0,1.2 m26.9,49.7 l0.0,0.0 -2.6,2.6 l-0.6,2.8 0.0,2.8 l0.6,2.4 1.0,2.0 l0.8,1.0 1.2,0.6 l1.2,0.4 1.4,0.0 l1.0,-0.4 1.6,-1.6 l1.4,-2.6 1.2,-3.8 l0.0,-1.8 -0.2,-1.2 l-0.6,-0.8 -1.2,-0.8 l-1.8,-0.6 -3.2,-1.6 l-1.2,-0.2 -0.8,0.2 l-0.4,0.2 m13.0,4.4 l-2.4,3.0 -0.2,1.6 l0.2,0.8 0.6,4.2 l0.0,0.4 0.4,0.6 l1.2,0.0 1.2,-0.2 l1.2,-0.4 1.6,-1.4 l0.8,-1.4 0.4,-2.0 l-0.8,-2.2 -0.8,-1.0 l-2.0,-1.2 -1.2,-0.2 l-1.6,-0.4 -0.8,0.8 m-5.0,11.4 l-1.6,3.0 -0.6,1.4 l-0.4,1.6 -0.4,1.2 l0.0,5.4 -0.2,1.2 l0.0,1.0 -0.2,1.2 l0.0,3.2 0.4,1.2 l0.2,1.0 0.0,1.0 l0.2,0.8 0.0,0.8 l0.8,3.8 0.4,0.6 l0.6,0.6 0.4,0.2 l0.4,0.0 0.6,0.2 l0.4,0.0 0.6,-0.2 l0.4,-0.4 0.6,-0.8 l2.6,-5.0 0.4,-2.0 l0.0,-1.0 -0.2,-2.0 l0.0,-6.6 0.4,-2.4 l0.4,-1.8 0.4,-2.8 l0.0,-2.0 -0.2,-0.8 l0.0,-1.8 -0.2,-1.0 l0.0,-2.0 m-8.0,7.8 l0.4,-3.6 0.6,-0.6 m-61.0,127.3 l0.0,0.0 0.6,-0.8 l0.2,-0.6 2.6,-2.0 l3.4,-3.0 4.6,-5.0 l9.8,-5.8 6.2,-4.0 l4.6,-2.6 5.4,-3.8 l8.0,-6.2 3.0,-2.0 l8.2,-7.0 7.6,-4.4 l8.4,-7.4 5.0,-4.6 l6.0,-6.4 5.6,-7.6 l7.8,-9.8 4.2,-5.8 l7.4,-8.6 1.8,-1.4 l1.6,-1.2 4.4,-2.8 l0.6,-0.6 2.4,-1.0 l0.6,0.0 2.6,-1.2 l5.4,-0.8 5.6,0.0 l2.8,0.6 3.4,1.4 l3.8,1.2 3.0,1.2 l3.2,2.6 2.6,4.6 l1.0,2.6 0.6,5.2 l0.0,5.2 -0.6,2.8 l-2.6,6.4 -0.6,2.0 l-2.6,5.8 -0.8,2.4 l-4.0,7.6 -6.8,8.4 l-3.8,4.2 -4.6,4.2 l-11.0,8.6 -7.4,6.4 l-9.0,6.4 -18.8,14.4 l-4.4,3.0 -3.6,2.2 l-8.2,4.0 -2.8,1.8 l-6.6,3.8 -3.8,2.6 l-6.4,2.6 -1.4,0.8 l9.8,0.0 6.2,-0.8 l5.6,-0.4 7.0,0.0 l5.4,0.2 4.4,0.8 l4.2,2.0 5.6,3.4 l4.0,3.2 2.0,1.0 l0.2,0.2 0.6,1.6 l1.2,1.8 0.4,1.6 l0.4,3.0 0.8,2.6 l0.2,1.4 0.0,3.4 l-0.6,4.6 -2.4,5.2 l-2.4,2.6 -1.6,1.0 l-4.6,2.0 -2.4,0.6 l-5.6,1.8 -7.0,0.6 l-3.8,1.2 -0.6,0.0 l0.0,-0.4 -0.4,-1.0 l-2.8,-3.6 -5.8,-5.6 l-1.0,-1.2 -4.2,-4.2 l-8.2,-9.2 -1.6,-2.0 l-3.6,-3.0 -4.6,-5.2 l-4.0,-2.6 -8.2,-6.2 l-1.8,-1.8 -4.8,-4.0 l-2.4,-2.4 -4.2,-2.8 l-5.8,-2.8 -1.0,-0.8 l-5.8,-2.8 -3.2,-2.0 l-5.0,-2.2 -2.0,-0.6 l-5.6,-2.2 -2.2,-0.4 l-4.6,-1.2 -4.4,-0.2 m131.6,-81.6 l0.0,-0.2 0.4,0.2 l0.8,1.4 2.2,1.8 l2.2,1.4 6.2,2.8 l20.2,10.4 5.0,1.8 l0.4,0.4 0.4,1.0 l0.4,0.4 0.0,0.4 l0.8,1.4 0.2,0.8 l0.2,0.2 0.0,0.4 l1.0,0.8 0.2,0.4 l0.8,0.4 -0.2,0.0 m-124.2,44.2 l0.0,-3.8 -1.4,-6.4 l0.0,-0.8 m19.0,5.4 l0.2,-1.8 0.0,-4.8 l-0.4,-3.2 0.4,-2.6 m8.6,1.2 l0.0,-0.6 0.6,-1.4 l0.8,-3.2 0.2,-5.6 l0.2,-1.4 m20.8,12.6 l0.0,-1.6 1.0,-2.0 l0.6,0.0 m30.0,11.4 l0.6,-0.4 1.4,-0.4 l5.4,-0.4 2.2,-0.4 m-12.6,-20.8 l3.4,-1.2 10.0,-1.4 l5.0,-1.6 0.2,-0.4 m-25.4,-11.4 l-1.4,-2.0 -1.0,-1.0 l-0.2,0.0 -1.8,-2.8 m-1.2,24.8 l-0.4,3.4 -1.6,3.6 l-1.0,1.4 -0.4,1.2 l0.0,1.2 m-10.8,15.4 l-0.6,1.0 -2.2,2.2 l-2.4,2.0 m-13.4,9.6 l-0.8,1.0 -1.4,1.2 l-4.6,2.6 m-46.4,66.1 l0.0,0.0 -0.2,-0.2 l-1.2,0.8 -4.0,4.2 l-0.6,1.2 -0.6,0.6 l-0.4,0.8 -0.8,2.0 l0.0,0.6 -0.6,1.8 l-0.2,2.4 0.0,5.0 l0.6,1.6 0.8,1.2 l0.4,1.0 1.8,2.2 l1.6,1.0 1.6,0.2 l1.8,0.6 2.0,0.4 l1.6,0.0 2.4,0.6 l2.0,0.2 5.0,0.0 l1.8,-0.8 1.8,-1.6 l0.6,-2.8 0.6,-1.8 l0.4,-2.4 0.0,-1.0 l0.4,-0.8 0.0,-5.2 l0.0,1.4 0.4,2.2 l0.0,0.8 0.2,1.0 l0.6,1.2 0.4,2.0 l0.8,1.0 0.2,1.4 l0.6,1.0 0.4,0.6 l0.8,0.8 0.4,0.2 l2.8,0.2 2.2,0.6 l5.0,0.4 2.6,0.6 l4.8,0.0 6.6,-1.6 l4.0,-2.0 1.4,-1.2 l2.2,-2.8 0.2,-1.4 l0.4,-0.6 0.0,-5.6 l-1.0,-3.2 -0.4,-3.2 l-0.4,-1.6 -2.2,-4.2 l0.4,0.0 3.0,1.2 l6.4,2.0 6.8,2.0 l3.2,0.6 4.8,2.4 l6.6,4.0 1.2,1.0 l4.2,6.0 1.6,1.6 l0.2,0.6 0.8,1.0 l2.0,7.6 0.0,1.2 l0.8,1.4 -0.2,0.0 l-1.6,-1.4 -2.6,-1.4 l-2.0,-0.8 -1.6,-0.4 l-3.4,0.0 -0.4,0.2 l-0.6,0.6 -0.6,2.0 l0.0,1.6 0.4,1.2 l1.8,2.4 1.0,1.0 l3.0,1.8 1.8,0.6 l7.4,3.2 1.6,0.4 l0.8,0.0 1.0,0.6 l5.4,1.0 4.0,0.4 l12.6,0.0 5.2,-1.6 l2.2,-0.8 2.0,-1.0 l0.8,-0.6 1.0,-2.4 l0.4,-2.6 0.0,-6.6 l-0.6,-1.2 -0.4,-1.4 l-2.0,-2.2 -1.4,-0.4 l-3.4,0.0 -1.0,1.0 l0.0,1.8 -0.2,0.2 l-0.2,-0.8 -0.6,-0.8 l0.0,-0.4 -0.6,-0.8 l-1.8,-3.2 -2.4,-2.6 l-1.0,-1.4 -2.8,-2.0 l-5.4,-5.6 -1.8,-1.4 l-1.0,-1.0 -2.2,-1.2 l-4.6,-3.0 -3.2,-2.8 l-4.8,-3.2 -2.0,-1.0 l-1.4,-1.0 -1.6,-0.8 l-3.2,-2.0 -7.0,-4.0 l-5.2,-2.6 -5.8,-2.2 l-4.0,-1.0 -4.2,-0.4 l-2.6,-0.6 -5.0,-0.4 l-2.4,-0.6 -4.6,-0.4 l-19.4,0.0 -2.0,0.4 l-1.6,0.6 -3.6,1.8 l-2.8,1.2 -0.8,0.6 l-1.2,0.4 -2.0,1.6 l-0.6,0.6 -0.6,1.2 l-2.0,2.2 -1.0,1.4 l-0.2,0.8 -2.4,2.8 l0.0,0.4 -0.4,0.8 l-0.8,0.8 0.0,0.2 l-0.8,0.8 -0.2,0.4 m82.6,85.9 l0.0,0.0 0.0,0.2 l0.4,0.2 0.6,1.2 l1.6,1.8 1.0,1.6 l0.0,0.4 0.4,0.6 l0.0,0.4 0.6,1.4 l0.0,1.0 0.2,0.6 l0.0,2.8 -0.2,0.2 l0.0,0.6 -0.2,0.0 l0.0,0.2 -0.6,0.8 l-0.8,0.2 -0.2,0.2 l-2.6,0.0 -2.0,-0.6 l-1.0,-1.4 -0.2,0.0 l0.0,0.2 -0.4,0.0 l-0.4,1.0 -0.8,1.2 l0.0,0.4 -3.0,4.2 l-0.6,1.4 0.0,0.8 l-0.4,1.2 -1.2,1.4 l-0.8,1.2 -0.2,0.6 l0.0,-0.8 0.0,0.2 l-1.4,1.6 -3.0,4.6 l-0.4,0.4 -2.2,3.8 l-2.2,2.6 -0.6,1.0 l-0.4,1.2 -1.8,2.6 l-0.8,0.8 0.0,0.4 l-1.0,2.0 -0.2,0.0 m10.2,-43.0 l0.0,1.2 -0.4,0.2 l0.0,0.4 -0.2,0.2 l0.0,1.6 0.6,0.2 l0.2,0.4 0.2,0.0 l1.2,1.0 0.0,0.8 l-0.4,0.6 -1.8,1.8 l-2.2,3.4 -0.2,0.0 l0.0,0.4 -2.4,2.6 l-2.4,3.4 -0.8,0.8 l-1.8,3.2 -0.4,0.4 l0.0,0.6 -0.6,1.4 l-2.8,3.4 -1.4,1.2 l-0.2,0.6 -0.2,0.0 l0.0,0.2 -0.4,0.2 l0.0,0.4 -0.2,0.4 l-0.2,0.0 -0.2,1.2 l-0.4,0.0 0.0,0.4 l-1.2,1.2 0.0,0.4 l-0.4,0.0 -1.2,-1.6 l-2.2,-4.2 -0.8,-1.0 l-0.4,-0.2 -3.0,0.0 l-0.4,0.2 -0.8,0.8 l-0.4,1.6 -2.4,4.8 l-0.2,1.2 -0.4,0.8 l0.0,0.6 -0.2,0.4 l0.0,1.0 0.2,0.6 l1.2,0.8 2.2,1.0 l2.2,0.0 0.8,-0.4 l1.0,-0.8 0.4,0.0 l0.0,-0.2 0.2,0.0 l0.0,0.2 -0.6,0.6 l-0.4,0.8 0.0,0.6 l-1.4,4.6 0.0,2.0 l1.4,1.6 0.8,0.6 l1.6,0.8 2.0,0.4 l1.8,0.0 1.2,-1.4 l0.2,-0.6 0.6,-0.4 l0.2,-1.0 0.2,0.0 l0.2,-0.6 0.2,0.0 l0.0,-0.2 0.8,-0.4 l0.0,-0.2 0.4,-0.2 l1.2,-1.6 0.4,-0.2 l0.0,-0.2 0.2,0.0 l0.0,-0.2 m74.1,-422.1 l0.0,0.0 -0.2,0.4 l0.0,8.0 0.8,3.2 l1.0,1.2 1.6,1.6 l0.8,0.4 0.8,0.2 l0.2,0.2 1.2,0.0 l0.8,-0.4 1.2,-0.8 l0.4,0.0 0.4,-0.4 l0.4,-1.2 1.0,-1.8 l1.0,-2.2 1.2,-3.2 l0.0,-0.6 0.4,-0.8 l0.0,-1.8 1.0,0.0 l6.0,1.0 3.4,0.2 l1.2,0.2 19.4,0.0 l4.2,-0.4 3.8,-0.8 l4.2,-0.6 3.6,-0.8 l2.8,-0.8 0.6,-0.6 l0.4,-0.2 0.8,-0.8 l0.8,-0.6 0.4,-0.6 l0.2,-0.6 0.0,-1.6 l-0.6,-1.0 -1.0,-0.6 l-2.0,-0.6 -3.2,-1.2 l-3.0,-0.8 -6.6,-1.2 l-5.6,-1.2 -2.8,-0.2 l-19.0,0.0 -5.8,1.0 l-2.4,0.6 -1.6,0.2 l-0.6,0.0 -0.2,0.2 l-0.4,0.2 -1.8,0.4 l-2.8,0.8 -0.6,0.0 l-1.6,0.6 -1.0,0.2 l-0.4,0.0 -0.2,0.2 l-2.4,1.2 -0.6,0.4 l-0.2,0.0 -0.6,2.0 l-0.2,0.2 -0.2,0.4 l0.0,1.6 0.6,0.0 l0.8,-1.4 0.2,-0.6 l0.8,-1.0 0.2,0.0 l0.0,-0.2 0.2,0.0 l0.2,-0.2 0.0,-0.2 l0.8,-0.2 0.4,-0.2 l0.2,-0.2 2.4,0.0 l0.6,0.2 1.6,1.0 l0.6,0.6 0.6,0.2 l0.8,1.0 1.6,1.2 l0.6,0.8 0.6,0.4 l0.0,0.2 0.6,0.2 l0.2,0.2 0.2,0.0 l0.2,0.2 0.2,0.0 l0.0,0.2 0.2,0.2 m45.2,-9.2 l0.0,4.4 0.2,0.8 l0.6,0.8 0.0,0.4 l0.4,0.4 0.0,0.4 m-46.1,119.6 l0.0,0.0 0.0,0.4 l-3.0,6.4 -0.4,2.4 l-0.2,4.6 2.4,4.6 l1.4,1.0 3.8,0.0 l3.2,-0.8 2.0,-2.8 l1.2,-2.0 1.4,-1.6 l1.0,-0.4 5.0,0.0 l1.8,1.0 1.6,1.0 l1.8,1.4 0.8,0.8 l0.4,0.6 1.6,1.6 l1.6,0.6 4.0,0.0 l0.8,-1.0 0.8,-1.6 l0.8,-1.4 0.8,-1.2 l1.0,-2.2 0.2,-1.4 l0.0,-8.0 -1.0,-1.4 l-1.2,-1.2 -2.0,-1.4 l-4.2,-1.6 -0.6,-0.6 l-0.2,-2.2 0.0,-2.6 l3.8,-11.0 0.6,-4.8 l0.0,-14.2 -1.2,-3.0 l-1.8,-3.8 -2.2,-2.6 l-4.4,-3.4 -2.6,-1.0 l-0.2,0.2 -0.8,2.2 l-1.8,4.2 -0.6,1.8 l0.0,1.6 -0.8,3.6 l-1.2,3.4 -0.6,6.2 l-0.8,4.4 -0.4,2.8 l-1.8,7.4 -0.4,4.4 l0.0,5.2 0.2,3.0 l-4.6,0.0 -1.6,1.6 l-0.2,1.0 -0.6,0.8 m11.2,-31.0 l4.0,0.8 3.8,-2.6 l2.6,-1.0 3.4,-2.0 l1.6,-1.2 0.6,-1.0 l0.4,-0.4 0.0,-0.4 m-7.2,0.2 l-1.4,-6.0 -1.6,-2.6 l-0.6,-2.0 0.0,-0.8 m14.0,20.0 l0.6,-0.2 14.8,-3.4 l4.2,-4.8 2.2,-6.8 l0.0,-0.6 m-45.6,18.8 l-5.2,-1.0 -4.6,-3.6 l-2.6,-3.4 -6.4,-11.6 l0.0,-3.6 m3.4,7.0 l-3.0,2.4 -10.4,7.2 m17.0,-1.6 l-1.2,4.0 -9.6,11.0 m56.2,-19.2 l1.4,4.8 5.2,9.6 m-22.9,113.3 l0.0,0.0 0.0,-6.0 l1.4,-5.6 0.4,-1.0 l0.8,-3.0 0.0,-4.6 l-1.0,-2.8 -2.8,-8.6 l-0.2,-1.2 -0.6,-1.2 l-1.2,-2.8 -1.8,-3.2 l-1.6,-2.4 -1.4,-1.6 l-1.2,-1.0 -1.4,-0.4 l-1.4,-0.2 -9.4,0.0 l-1.2,0.2 -4.0,1.6 l-1.2,1.2 -1.6,1.2 l-2.4,2.8 -0.8,2.2 l-0.2,1.0 -0.4,3.8 l0.0,5.4 4.0,9.4 l1.6,4.2 1.2,2.8 l0.4,1.6 1.4,2.8 l3.6,6.6 2.0,3.4 l0.8,1.2 3.6,2.6 l1.4,0.0 0.0,1.0 l-1.6,3.0 -0.8,2.8 l0.0,1.2 -0.4,4.6 l-0.6,0.2 0.0,3.2 l1.4,3.0 3.2,3.6 l2.4,1.4 4.8,1.2 l2.8,-0.2 3.8,-2.6 l0.6,-1.0 0.2,-0.8 l0.0,-4.4 -0.4,-4.8 l-0.4,-0.8 -0.4,0.0 l-0.4,-0.4 0.0,-0.2 l0.2,0.8 2.2,1.8 l4.4,2.6 2.4,1.0 l0.6,0.0 0.8,0.2 l1.0,0.0 1.0,-0.2 l1.0,-0.8 0.0,-0.4 l0.8,-1.4 0.0,-6.2 l-0.4,-0.4 -1.6,-2.0 l-1.2,-0.6 -2.2,-2.4 l-0.6,-0.6 -0.8,-0.6 l-0.8,-0.8 -1.2,-0.8 l-1.4,-0.6 -1.2,-0.8 l-0.8,-0.4 -0.8,-0.2 m-32.6,-36.6 l0.2,0.2 1.2,0.6 l1.6,0.6 3.2,0.6 l3.0,0.4 2.2,0.0 l1.4,-0.4 1.0,-1.0 l1.4,-0.8 1.4,-1.0 l1.8,-0.8 2.0,-1.4 l2.2,-1.4 1.6,-1.2 l0.8,-0.2 0.0,-0.2 m-83.1,135.0 l0.0,0.0 0.0,1.2 l0.2,1.6 0.8,2.0 l0.6,2.2 1.0,2.6 l1.0,3.0 0.8,1.8 l3.0,4.8 2.8,2.8 l0.8,1.0 0.8,0.4 l0.8,0.6 1.0,0.6 l1.2,0.6 2.8,1.0 l1.6,0.2 6.4,0.4 l2.6,-0.2 3.0,-0.8 l3.0,-1.4 1.0,-1.0 l0.6,-1.4 1.0,-1.2 l0.8,-1.8 0.8,-2.8 l0.6,-0.8 0.4,-1.2 l0.8,-1.4 0.8,-1.8 l0.4,-1.6 1.0,-3.2 l0.4,-0.8 0.0,-0.4 l0.2,-0.4 0.0,-0.2 l0.2,-0.2 0.0,-0.6 l0.2,-0.4 0.0,-1.6 l0.2,-0.4 0.0,-2.8 l-0.2,-0.6 0.0,-1.0 l0.4,0.0 1.2,0.4 l1.2,0.6 2.2,0.8 l2.2,1.0 2.8,0.8 l4.6,0.8 11.8,0.0 l5.4,-0.4 7.2,0.0 l4.4,-0.2 3.8,-0.4 l10.2,0.0 7.6,-0.6 l5.4,-0.6 3.0,0.0 l2.4,-0.4 4.8,0.0 l2.6,-0.2 7.2,-0.8 l4.0,-0.6 1.4,0.0 l1.2,-0.4 1.2,-0.2 l1.2,0.0 2.8,-0.4 l3.0,-0.6 1.8,-0.2 l2.4,0.0 1.0,-0.2 l0.6,-0.2 1.4,-0.8 l0.4,-0.4 0.6,-0.2 l0.4,-0.6 0.4,-0.4 l0.2,-0.8 0.8,-1.0 l0.6,-1.4 0.8,-2.4 l0.4,-1.6 0.2,-1.2 l0.0,-1.8 -0.4,-2.2 l-0.4,-1.2 -0.2,-1.2 l-0.4,-1.0 -0.4,-1.4 l-1.4,-2.6 -0.8,-1.0 l-1.6,-2.6 -0.8,-0.8 l-0.6,-1.0 -0.6,-0.4 l-0.4,-0.4 -2.8,-0.4 l-2.2,-0.2 -2.4,-0.2 l-8.4,0.0 -2.8,0.2 l-3.8,0.0 -2.4,0.4 l-5.6,0.0 -2.4,0.4 l-10.0,0.0 -4.2,-0.2 l-4.2,-0.4 -7.6,-0.4 l-15.0,0.0 -5.4,-0.4 l-22.0,0.0 -3.4,0.4 l-2.2,0.0 -1.8,0.2 l-2.0,0.4 -1.4,0.0 l-5.2,0.6 -16.2,0.0 l-1.6,0.2 -4.6,0.0 l-2.8,0.8 -2.0,0.0 l-0.4,0.2 -1.2,0.0 l-0.4,0.2 -1.8,0.0 l-1.0,0.2 -2.4,0.0 l0.0,0.2 -0.8,0.0 l-1.0,0.4 -0.8,0.0 l0.2,-0.2 -0.2,-0.6 l-0.2,0.0 m77.7,150.5 l0.0,0.0 -0.2,0.4 l-0.2,0.2 -1.4,0.6 l-3.8,0.4 -4.6,0.0 l-2.8,-1.6 -0.8,-1.0 l-0.6,-1.0 -1.0,-2.6 l-0.4,-1.4 0.0,-3.2 l0.4,-1.2 1.2,-1.6 l1.6,-1.2 1.2,-0.2 l0.8,-0.4 2.8,-0.2 l1.2,0.0 2.0,0.4 l1.2,0.8 2.6,1.4 l1.0,0.8 0.2,0.4 l0.2,0.2 0.2,0.0 l0.2,0.6 0.0,-3.6 l-1.0,-5.6 -0.2,-2.2 l0.4,-8.8 0.4,-3.0 l1.4,-3.6 1.8,-5.8 l1.0,-2.0 2.0,-2.8 l0.4,-0.4 2.0,-0.2 l2.2,0.0 1.0,1.8 l0.6,1.8 1.0,1.8 l0.8,5.0 0.0,8.4 l-0.4,2.8 -0.2,0.8 l-0.4,0.6 -0.4,1.8 l-0.2,0.4 -0.2,0.8 l0.0,1.0 -0.4,1.0 l0.0,4.0 1.6,0.0 l0.2,-0.2 2.2,-0.6 l0.4,0.0 1.0,-0.2 l1.2,0.0 0.6,1.0 l1.2,2.4 1.2,2.8 l0.2,0.8 0.2,1.4 l0.2,2.6 0.0,3.6 l-0.4,1.4 -0.8,0.8 l-1.6,1.0 -0.8,0.4 l-1.4,0.2 -1.8,0.0 l-0.8,-0.2 -0.6,0.0 l-0.6,-0.4 -2.2,-1.0 l-0.4,-0.4 -0.8,-0.4 l-0.2,-0.2 0.0,-0.2 l-0.4,0.0 m48.7,-436.3 l0.0,0.0 -8.6,0.0 l-4.2,-0.4 -1.8,-1.8 l-0.4,-0.8 0.0,-7.0 l1.8,-2.4 1.0,-1.0 l0.2,-0.4 1.4,-1.4 l0.2,0.0 1.4,-0.8 l0.2,-0.2 1.0,-0.4 l2.6,0.0 1.6,0.6 l0.2,0.4 0.2,0.0 l0.6,0.6 0.0,-0.8 l-0.2,-1.0 0.0,-1.2 l0.2,-1.2 0.6,-0.4 l0.2,-0.4 1.0,-0.6 l0.2,-0.2 4.2,-0.8 l6.4,0.0 1.2,0.4 l0.6,0.8 0.0,0.4 l0.8,1.8 0.2,2.6 l0.2,0.2 0.4,2.4 l0.8,1.4 0.2,0.0 l0.0,4.4 0.4,1.2 l0.2,0.0 0.2,0.8 l0.6,0.6 0.6,0.8 l1.0,1.0 0.4,1.2 l0.4,0.8 0.2,0.2 l4.6,6.8 0.2,0.4 l1.8,2.2 0.0,0.4 l1.8,2.2 0.2,0.6 l0.6,1.2 0.2,1.2 l1.8,4.4 1.4,2.2 l0.0,0.2 0.2,0.2 l0.4,0.0 0.4,-0.2 l0.0,-0.2 0.4,-0.2 l1.8,-1.6 1.2,-0.6 l1.4,-0.4 3.4,0.0 l0.6,0.2 0.6,0.6 l0.4,0.2 0.4,0.8 l0.2,1.2 0.2,0.6 l0.2,2.0 0.8,1.4 l0.0,0.2 0.4,0.8 l0.6,0.4 0.0,0.6 l0.2,0.4 0.4,1.8 l0.2,0.2 0.8,1.6 l2.2,3.6 0.0,0.2 l0.4,0.6 0.4,1.0 l0.0,0.8 0.2,2.0 l0.2,0.8 0.6,1.4 l0.0,1.2 -0.2,0.0 l-1.2,0.6 -0.8,0.2 l-0.4,0.4 0.0,0.2 l-0.2,0.4 -0.2,0.2 l-1.4,0.8 -0.8,0.2 l-0.2,0.2 -0.4,0.0 l-1.0,0.2 -1.0,0.0 l-0.6,0.2 -1.2,0.2 l-1.6,0.0 -0.2,-0.4 l-0.4,0.0 0.0,-0.2 l-7.2,0.0 -1.0,-0.4 l-0.6,0.0 -0.2,-0.2 l-0.8,-0.2 -0.6,0.0 l-0.4,-0.2 -0.2,-0.2 l-0.2,0.0 -0.2,-0.2 l-0.6,0.0 -1.0,-0.4 l-0.2,0.0 -0.2,-0.2 l-0.8,-0.2 -0.4,-0.2 l-0.2,0.0 -0.4,-0.6 l-0.4,0.0 -0.2,-0.2 l-0.2,0.0 0.0,-0.2 l-0.2,0.0 -0.4,-0.4 l-0.4,0.0 -1.6,-1.6 l-0.2,0.0 0.0,-0.4 l-0.4,-1.0 -0.4,-0.4 l-0.2,-0.6 -0.2,-0.2 l0.0,-0.4 -0.2,0.0 l0.0,-0.6 -0.2,-1.0 l0.0,-1.2 0.2,-0.8 l0.2,-0.4 1.2,-1.4 l0.6,-1.2 0.0,-0.2 l0.6,-0.8 0.0,-0.6 l0.2,0.0 0.0,-1.8 l-0.2,-0.4 0.0,-0.2 l-0.6,-0.8 -0.4,-0.8 l-0.2,-0.6 -0.6,-0.6 l-0.6,-0.8 -0.2,-0.4 l-1.8,-1.4 -1.4,-2.0 l-1.0,-1.8 -1.0,-1.4 l-1.4,-2.2 -0.8,-1.8 l-1.8,-3.2 -0.8,-1.2 l-0.8,-0.8 -0.8,-0.4 l-1.4,-1.0 0.0,-0.4 l-0.8,-1.6 -0.2,-0.8 l-0.4,-0.8 -0.2,-0.8 l-0.4,-0.4 -1.0,-1.8 l-0.4,-0.2 m102.8,51.4 l-0.4,0.0 m-84.8,71.0 l0.0,0.0 -0.8,-0.4 l-1.2,-0.4 -2.8,-1.4 l-4.2,-1.4 -5.0,-1.0 l-3.6,-0.4 -4.8,0.0 l-1.6,0.4 -3.2,1.2 l-1.2,0.8 -1.4,0.8 l-1.0,1.2 -1.2,1.0 l-1.8,2.0 -1.0,1.2 l-2.0,2.8 -0.4,1.0 l-0.8,2.6 -0.6,1.6 l-0.4,4.2 0.0,3.6 l0.2,2.2 1.0,2.2 l1.4,2.4 1.8,2.2 l1.6,1.8 1.4,1.4 l3.2,2.4 2.0,1.0 l2.8,1.2 2.6,1.0 l4.0,0.6 2.4,0.2 l8.8,0.0 2.2,-0.4 l3.4,-1.8 1.8,-1.6 l1.6,-1.2 2.2,-2.4 l0.2,-0.4 0.0,-0.2 l0.2,-0.2 -0.2,0.2 l0.0,4.4 0.2,1.6 l0.8,2.2 0.8,1.2 l1.2,1.4 2.0,2.0 l1.6,1.0 1.6,1.2 l2.4,1.4 1.4,1.2 l2.2,1.2 2.6,1.2 l2.2,0.8 2.4,0.4 l2.2,0.2 4.6,0.0 l2.0,-0.4 1.8,-0.6 l1.4,-0.6 3.2,-1.8 l1.2,-1.0 1.0,-1.0 l0.8,-1.4 1.0,-1.4 l0.8,-1.6 1.0,-1.6 l0.4,-1.0 0.6,-2.0 l0.2,-1.0 0.0,-8.2 l-0.8,-3.2 -1.6,-2.8 l-1.8,-2.6 -2.0,-2.0 l-0.8,-0.6 -1.6,-1.4 l-1.4,-1.0 -1.6,-1.0 l-6.4,-3.4 -2.4,-1.0 l-0.2,-0.2 0.0,-0.2 l0.2,0.0 0.0,-0.2 l1.2,-1.4 1.8,-2.8 l2.6,-3.6 3.4,-4.2 l3.0,-4.2 7.6,-8.6 l2.6,-3.2 8.0,-9.2 l9.0,-10.6 1.6,-1.6 l2.0,-1.4 0.4,-0.4 l0.8,-0.2 0.4,-0.2 l0.4,-0.4 0.4,0.0 l0.2,-0.2 1.4,0.8 l2.6,1.8 2.6,1.4 l1.6,0.6 2.0,0.4 l1.4,0.0 0.2,-0.2 l0.2,-0.6 0.8,-0.8 l2.0,-3.8 0.6,-2.0 l0.2,-2.2 0.0,-3.6 l-0.8,-2.2 -1.0,-2.2 l-1.4,-1.8 -1.0,-0.6 l-0.6,-0.2 -1.6,-0.2 m0.0,0.0 l-0.4,0.0 -2.0,-0.4 l-4.6,-1.8 -1.0,-0.6 l-1.0,-0.4 -1.0,-0.6 l-4.0,-0.8 -3.0,-0.8 l-1.2,0.0 -3.8,-0.6 l-8.6,0.0 -2.0,1.0 l-0.8,0.6 -2.4,2.4 l-1.0,0.6 -1.2,1.2 l0.0,2.4 0.2,0.8 l0.0,0.6 0.4,0.8 l0.2,0.2 0.2,0.0 l0.2,0.2 0.2,0.0 l0.2,0.2 0.2,0.0 l0.2,0.2 0.4,0.0 l0.2,0.2 -0.8,0.0 l-0.8,0.8 -2.0,1.6 l-2.6,2.4 -9.6,10.2 l-3.8,5.0 -4.0,5.6 l-3.6,5.6 -3.0,5.2 l-2.0,3.2 -2.8,5.0 l-2.6,5.0 -0.8,1.4 l-0.8,1.2 -0.6,1.2 l-1.2,3.4 -1.0,2.0 l0.0,0.4 -0.6,0.0 l0.0,-0.4 m48.8,-58.6 l0.0,2.0 0.2,0.2 l4.4,0.0 1.2,-0.4 l0.0,-0.2 0.8,-0.2 m-51.6,125.4 l0.0,0.0 -2.2,1.2 l-1.4,0.4 -2.6,1.2 l-3.0,1.0 -3.4,0.8 l0.0,0.2 -1.0,0.4 l-2.4,1.4 -1.4,0.2 l-5.2,2.6 -8.4,4.8 l0.0,0.2 -9.2,4.0 l-9.2,6.4 -3.0,1.8 l-1.0,0.8 -3.0,1.6 l0.0,0.2 -0.2,0.0 l0.0,-1.0 -0.4,-0.6 l-0.2,-0.8 -0.4,-0.4 l0.0,-0.6 -0.2,-0.2 l-0.8,0.2 -1.6,0.8 l-1.4,1.4 -0.6,1.0 l-2.0,1.8 -5.6,7.4 l-2.2,4.0 -1.6,4.0 l-0.2,1.6 0.0,4.6 l0.8,1.2 0.8,0.6 l0.4,0.0 0.6,1.4 l2.2,1.8 4.0,2.8 l1.2,1.4 2.6,0.4 l3.8,2.0 4.0,1.0 l1.8,0.2 2.0,0.0 l2.2,-0.6 3.8,-0.4 l3.6,0.0 0.8,-0.4 l1.6,-0.4 -0.4,-1.0 l0.0,-0.4 -1.0,-1.4 l0.0,-2.2 0.2,0.0 l0.0,-0.2 0.6,-0.4 l1.4,-0.4 0.2,-0.2 l2.2,-0.8 4.8,-0.6 l3.4,-0.6 2.8,-0.2 l1.2,-0.8 2.0,-0.4 l2.0,0.0 0.2,-0.4 l0.6,-0.2 2.0,-1.6 l1.8,-0.8 1.4,-0.2 l5.8,-3.2 3.8,-1.4 l1.0,-0.8 3.0,-1.2 l2.4,-1.2 1.8,-1.8 l2.4,-1.6 2.8,-2.4 l1.8,-2.2 0.0,1.8 l-0.4,3.2 -0.2,0.6 l0.0,4.2 0.4,0.8 l1.6,4.8 1.8,2.8 l4.2,2.6 4.2,2.2 l2.6,0.6 4.8,0.8 l9.4,2.6 8.2,1.4 l6.6,0.4 4.2,0.0 l2.0,-0.4 2.0,-1.2 l2.0,-2.2 0.4,-0.6 l0.0,-0.6 0.4,-1.4 l0.0,-6.0 -0.4,-2.2 l-0.8,-2.0 -1.6,-2.8 l-3.2,-5.0 -2.2,-2.2 l-1.6,-2.0 -0.6,-1.2 l-1.0,-1.0 -0.4,-0.8 l0.4,1.0 5.0,5.6 l4.6,3.2 5.4,2.4 l2.6,0.6 4.8,1.6 l5.8,0.8 4.4,0.8 l3.4,0.0 1.8,-0.2 l1.4,-0.6 2.2,-1.8 l3.2,-4.0 1.6,-2.6 l1.4,-2.8 1.4,-3.6 l1.0,-4.8 0.4,-3.8 l0.4,-4.8 0.0,-8.0 l-0.8,-5.6 -1.2,-5.4 l-0.2,-1.8 -2.8,-4.6 l-2.6,-3.4 -1.0,-1.6 l-2.8,-1.0 -4.2,-3.8 l-5.8,-3.0 -6.4,-3.0 l-5.6,-2.2 -2.8,-0.6 l-2.4,-0.2 -11.4,0.0 l-2.6,0.4 -4.6,1.4 l-4.2,1.8 -5.6,3.6 l-3.6,2.6 -3.2,3.2 l-6.2,7.6 -1.6,2.6 l-1.6,2.2 -1.6,3.2 m-14.1,112.9 l0.0,0.0 0.0,0.4 l0.2,0.2 0.6,0.0 l0.0,0.2 0.8,0.2 l0.0,0.2 1.0,0.2 l0.2,0.4 0.2,0.0 l0.6,0.8 1.2,0.6 l0.8,0.6 0.8,0.2 l0.0,0.4 0.4,0.0 l0.0,0.2 0.6,0.0 l0.0,0.2 1.0,0.4 l0.0,0.4 0.4,0.0 l0.0,0.8 -4.6,2.2 l-1.2,1.2 -0.2,0.4 l-1.2,1.0 0.0,0.4 l-0.8,1.8 0.0,1.8 l0.2,0.4 1.2,1.2 l6.0,4.8 2.2,1.4 l0.6,0.0 0.6,0.8 l1.4,1.0 0.8,0.8 l1.8,0.8 1.2,0.8 l0.8,0.0 0.2,0.2 l1.0,0.0 0.8,0.2 l1.2,0.0 1.4,-0.4 l0.4,-0.6 1.0,0.0 l1.6,-1.0 1.0,-0.4 l1.4,-2.2 0.8,-0.8 l0.6,-1.2 0.0,-0.6 l0.2,-0.4 0.0,-1.2 l0.4,-0.6 0.0,-1.4 l0.2,-0.2 0.0,-2.8 l-0.2,-0.6 0.0,-1.6 l-0.4,-0.2 0.0,-1.4 l-0.6,-0.8 -0.8,-1.8 l-0.6,-0.6 -0.2,-0.8 l-0.4,0.0 0.0,-0.2 l-0.4,-0.2 0.0,-0.6 l-0.4,0.0 0.0,-0.2 l-0.8,-0.8 0.0,-0.6 l-0.4,-0.2 0.0,-2.0 l-0.2,0.0 -0.2,-0.8 l-0.4,0.0 0.0,-0.6 l-0.6,-0.4 -0.2,-0.4 l-0.4,-0.2 0.0,-0.6 l-0.2,0.0 -0.2,-0.6 l-0.4,0.0 -0.2,-0.4 l-0.4,0.0 -0.2,-0.8 l-0.2,0.0 0.0,-0.2 l-0.4,0.0 -0.2,-0.4 l-0.4,0.0 0.0,-0.4 l-0.2,0.0 -0.4,-0.4 l-1.4,-1.8 -0.6,-0.4 l-0.4,-0.6 -1.0,-0.6 l-0.2,-0.8 -0.4,0.0 l-0.4,-0.2 0.0,-0.2 l-1.4,-0.6 -0.4,-0.6 l-0.8,-0.2 0.0,-0.2 l-0.4,0.0 -0.2,-0.8 l-0.8,0.0 0.0,0.6 l-0.4,0.2 -0.2,0.6 l-0.6,0.4 0.2,-2.2 l0.4,0.0 0.2,-0.8 l0.4,-0.4 0.0,-1.4 l-0.4,-0.2 -0.2,-0.8 l-0.4,-0.2 -0.2,-0.4 l-1.2,-0.2 -2.0,-1.2 l-0.8,0.0 -0.6,-0.4 l-1.4,-0.2 -1.6,-1.0 l-0.6,-0.2 -1.2,-0.2 l-2.2,0.0 -1.0,-0.2 l-2.4,0.0 -1.4,0.4 l-1.0,0.0 -0.6,0.6 l-1.6,0.4 -1.2,2.2 l-0.2,1.2 -0.6,1.2 l0.0,3.2 m6.6,-3.6 l0.2,0.0 0.0,0.2 l0.4,0.2 0.2,0.6 l0.6,0.2 0.0,0.2 l1.6,1.4 0.4,0.0 l0.0,0.2 0.8,0.4 l0.2,0.4 0.4,0.0 m-6.2,8.0 l-1.0,-0.8 -0.2,-0.6 l-0.4,0.0 -0.2,-0.4 l-0.6,-0.4 -0.2,-0.4 l-0.4,-0.2 0.0,-0.2 l-0.8,-0.4 -0.2,-0.4 l-0.4,-0.2 0.0,-0.8 m13.4,133.5 l0.0,0.0 0.0,-6.8 l-0.2,-0.8 -0.6,-4.0 l-0.2,-2.4 0.0,-22.8 l-1.0,0.0 -1.0,0.6 l-0.4,0.0 -1.4,0.8 l-1.0,0.2 -0.8,0.0 l0.0,-1.0 -0.2,-0.2 l-0.2,-0.8 0.0,-0.4 l-0.4,-1.0 0.0,-0.6 l-0.2,-0.4 0.0,-0.4 l-0.2,-1.0 0.0,-6.2 l0.2,-0.8 0.2,-0.4 l0.2,-0.2 0.0,-0.6 l0.4,-1.0 0.0,-0.4 l0.2,-0.4 0.0,-0.4 l1.0,-1.4 0.6,-1.4 l0.8,-1.4 1.4,-1.4 l0.2,0.0 0.2,-0.4 l0.4,-0.4 1.0,-0.4 l1.8,-0.4 2.4,0.0 l2.0,1.2 3.4,2.8 l0.4,0.8 0.8,1.2 l2.2,2.2 0.8,1.0 l2.2,3.4 0.4,0.8 l1.0,1.6 0.2,1.0 l0.6,2.0 0.0,3.0 l-0.4,0.6 0.0,0.4 l-0.2,0.0 0.0,0.4 l-0.2,0.2 -0.2,0.0 l-0.4,0.4 -0.2,0.4 l-0.2,0.0 -0.2,0.2 l-0.6,0.2 -0.2,0.2 l-0.2,0.0 -0.4,0.2 l-0.8,0.0 -0.4,0.2 l-0.4,0.0 -0.4,0.2 l-1.8,0.0 -0.4,-0.2 l-0.4,0.0 -0.4,-0.2 l-0.4,0.0 -0.2,-0.2 l-0.4,0.0 -0.2,-0.2 l-0.2,0.0 -0.2,1.6 l0.0,11.0 -0.2,0.6 l0.0,0.6 -0.2,0.4 l0.0,4.0 0.2,0.2 l0.0,0.8 0.2,0.6 l0.0,11.6 0.2,0.4 l0.0,0.6 0.2,0.6 l0.0,0.4 0.2,0.2 l0.0,3.8 0.4,0.0 l0.0,-0.4 0.8,-0.4 l1.2,-0.4 1.0,-0.2 l2.4,0.0 1.0,0.4 l1.0,0.6 1.4,0.6 l1.8,1.2 1.8,3.0 l0.4,0.8 0.0,0.6 l0.2,0.6 0.0,1.4 l-0.4,0.6 -1.4,1.4 l-1.6,0.8 -1.0,0.2 l-0.4,0.2 -3.2,0.4 l-0.6,0.2 -3.6,0.0 l-0.6,-0.2 -2.0,-2.0 l0.0,-0.2 -0.2,0.0 l-0.2,-0.2 0.0,-0.2 l-0.2,-0.2 0.0,-0.2 l-0.2,0.0 0.0,0.8 l-0.4,1.0 -1.2,0.6 l-0.2,0.2 -3.2,0.0 l-0.8,-0.4 -1.4,-1.0 l-0.2,-0.4 -0.8,-0.4 l-0.6,-0.6 -0.8,-1.4 l0.0,-0.6 -0.2,-0.4 l0.0,-2.0 0.2,-0.8 l0.8,-1.6 1.0,-1.0 l0.2,0.0 0.4,-0.4 l0.6,-0.4 0.4,-0.6 l0.4,-0.4 0.2,0.0 l0.0,-0.2 m85.8,-448.5 l0.0,0.0 7.4,-1.0 l15.8,-0.4 12.8,2.4 l8.8,2.4 4.0,1.4 l4.2,2.0 3.8,2.4 l3.6,3.4 2.2,3.0 l0.6,0.4 1.2,2.4 l0.6,0.6 3.2,7.0 l2.2,6.6 0.8,5.4 l-0.2,8.0 -1.8,6.8 l-1.0,2.4 -2.4,3.4 l-2.4,1.4 -4.6,1.2 l-3.0,0.0 -2.2,-1.4 l-2.6,-3.4 -4.8,-7.4 l-3.6,-6.4 -5.0,-6.8 l-4.8,-4.4 -3.6,-3.8 l-2.0,-1.6 -2.6,-1.6 l-2.8,-1.2 -2.2,-0.6 l-4.2,-0.2 -2.4,0.2 l-2.8,0.8 -1.6,1.2 l-1.2,2.4 m17.6,-2.2 l0.0,10.0 -0.8,4.8 l-1.6,5.2 -2.4,4.4 l-1.2,1.4 -5.2,4.0 l-3.6,1.6 -1.8,0.2 l-4.0,0.0 -3.0,-0.8 l-3.2,-5.8 -2.6,-7.6 l-1.4,-5.4 0.2,-2.0 l-1.2,5.6 -2.4,4.0 l-3.6,2.8 -2.8,1.2 l-1.0,0.0 -1.4,-0.8 l-1.6,-2.2 -1.2,-3.2 l-1.4,-6.2 0.2,-4.4 l1.2,-6.4 0.4,-0.4 l1.0,-3.2 1.8,-4.0 l2.4,-4.8 2.6,-3.6 l2.6,-3.0 2.6,-1.6 l2.8,-1.2 1.2,-1.0 m-6.4,2.4 l-3.2,0.4 -1.6,1.0 m9.0,13.6 l-2.0,1.0 -0.6,0.8 m26.0,16.0 l0.6,0.8 0.8,2.6 m-8.0,6.0 l-0.2,2.0 -1.0,2.4 m-29.8,-7.4 l-1.0,0.0 -2.0,1.6 m5.6,-27.2 l-0.4,-0.4 -2.6,-0.8 l-3.8,-1.8 m11.8,18.2 l-2.6,0.4 -1.4,0.6 l-1.4,1.2 m15.8,-8.2 l0.2,-0.4 2.0,0.2 m-1.6,-16.8 l-1.4,-0.8 -3.2,-0.8 l-1.6,0.0 m5.6,-8.2 l0.0,-1.6 0.8,-4.2 l1.8,-5.6 m12.0,7.6 l1.4,-1.8 3.2,-2.0 m-27.4,9.0 l-2.4,-1.8 -3.4,-1.4 l-2.8,-1.0 -4.0,-0.4 m9.8,10.6 l-7.6,0.4 -3.0,1.0 m7.4,7.4 l-9.8,1.2 -3.6,1.0 m6.2,13.2 l-0.2,0.8 -1.6,1.8 l-1.2,2.0 m9.8,10.0 l0.0,3.6 0.4,2.4 m65.4,-1.2 l2.2,-2.0 4.6,-2.2 l7.0,-3.2 2.6,-0.8 l1.0,0.0 2.6,-1.0 m-47.0,4.0 l1.4,0.0 1.8,1.2 m-12.5,106.6 l0.0,0.0 -0.4,-0.6 l-0.6,-0.6 -1.4,-1.8 l-2.4,-1.8 -1.6,-1.4 l-2.4,-2.4 -3.2,-2.4 l-4.2,-2.8 -3.4,-2.0 l-4.2,-1.2 -2.0,-0.4 l-3.0,-0.4 -7.8,0.0 l-2.4,2.2 -3.0,4.2 l-1.0,2.0 -0.8,2.4 l-0.2,2.8 0.0,5.2 l0.4,2.6 1.6,5.0 l1.2,1.8 2.0,1.4 l2.4,2.0 2.8,2.0 l2.4,1.4 4.0,1.0 l5.0,0.8 9.0,0.8 l19.2,0.0 6.4,-0.2 l9.6,0.0 3.4,-0.2 l2.8,-0.4 4.6,-0.8 l3.8,-1.8 3.0,-2.0 l1.2,-1.0 4.2,-1.4 l2.0,-1.0 2.4,-1.6 l5.2,-9.6 2.4,-8.2 l0.4,-1.0 1.8,-13.2 l0.2,-6.4 0.2,-1.8 l-0.4,-0.2 -1.2,0.0 l-0.6,-0.4 -0.4,-0.6 l-0.6,-0.2 -3.4,0.0 l-3.6,0.2 -4.2,0.8 l0.0,0.6 -2.0,0.8 l-1.4,1.0 -11.0,5.6 l-1.2,0.8 0.0,0.4 l-1.0,0.8 -9.4,6.8 l-2.6,4.0 -2.0,2.2 l-2.0,1.8 -3.2,3.8 l-3.2,4.6 -0.4,0.6 l0.0,0.2 0.0,-0.4 l0.2,0.0 m-10.4,-6.2 l0.0,-20.0 -0.2,-1.4 l-0.8,-2.0 -0.4,-0.4 l0.0,-0.2 -1.4,0.0 l-1.2,-0.4 -0.2,-0.2 l-0.6,-1.0 -0.2,-0.8 l0.0,-0.6 m20.8,22.4 l0.0,-0.8 -0.6,-1.6 l-0.4,-2.2 -0.6,-4.6 l0.0,-1.6 -0.2,-3.0 l0.0,-19.0 -0.4,-4.2 l-1.0,-1.6 0.0,-9.8 m0.0,0.4 l0.2,0.0 1.8,0.6 l3.4,0.6 0.4,0.2 l0.0,0.2 0.2,0.0 l3.2,-1.6 1.8,-0.8 l0.4,-0.4 0.0,-5.4 l-0.6,-2.0 -1.2,-1.6 l-1.8,-1.6 -2.4,-1.8 l-2.2,-2.2 -3.2,-2.2 l-4.0,-1.4 -5.8,-1.6 l-3.8,-0.4 -3.2,-0.2 l-1.4,0.0 -0.8,0.4 l-0.2,0.6 -3.2,2.2 l-3.2,3.0 -0.6,0.8 l-3.0,3.2 -0.6,2.0 l0.0,2.6 -0.2,2.4 l0.0,2.0 0.4,0.8 l0.8,0.0 0.4,-0.4 l0.6,-0.2 0.4,0.0 l0.2,-0.4 0.6,0.0 l1.2,-0.4 1.8,-1.0 l1.0,-0.4 1.6,-0.4 l1.6,-0.2 2.2,0.0 l1.2,0.8 0.8,0.4 l1.2,0.2 2.6,1.8 l0.0,1.6 -0.6,1.2 l-0.6,1.6 -0.8,1.6 l-0.8,2.6 -0.4,1.8 l-0.2,2.2 -0.6,3.2 l-0.8,5.6 -0.4,1.8 l0.0,0.8 -0.8,2.6 l0.0,2.2 1.4,2.0 l1.0,1.2 1.4,1.4 l1.4,2.6 1.6,2.6 l0.8,1.0 m14.6,44.7 l0.0,0.0 -0.2,0.0 l-0.6,0.6 -2.4,3.4 l-0.8,1.8 -1.4,2.8 l-0.8,2.6 -0.6,1.6 l-0.2,1.2 -0.6,1.2 l-0.8,4.6 0.0,1.4 l-0.4,3.0 -0.6,2.8 l-0.2,1.8 -0.2,1.0 l0.0,1.6 -0.4,2.0 l-0.2,2.0 -0.2,1.0 l0.0,2.0 -0.2,0.8 l-0.2,1.8 0.0,10.2 l-0.2,0.4 0.0,0.4 m0.0,0.0 l0.0,4.2 -0.4,1.0 l0.0,0.6 -0.6,2.2 l-0.4,0.8 -0.2,0.6 l-2.0,1.2 -1.6,0.8 l-4.0,1.6 -7.0,2.2 l-2.2,1.0 -5.2,4.6 l-0.4,0.6 -0.2,0.4 l-0.8,2.6 0.0,1.0 l-0.2,1.0 0.0,2.0 l0.2,0.8 0.4,0.8 l0.8,1.2 1.0,1.0 l0.6,0.4 0.6,0.6 l5.6,2.8 2.8,0.8 l2.2,0.2 2.0,0.4 l2.0,0.2 5.8,0.0 l2.0,-0.4 1.6,-0.6 l1.0,-0.6 2.4,-0.8 l1.4,-0.8 1.2,-0.4 l2.2,-1.4 0.8,-0.6 l1.2,-1.2 1.6,-2.4 l0.0,-0.2 0.2,-0.2 l0.0,-0.2 0.0,1.2 l0.2,0.8 0.6,1.0 l1.2,1.6 0.2,0.4 l1.0,0.6 0.2,0.2 l1.6,0.8 5.4,0.0 l1.2,-0.2 2.6,-0.8 l0.8,-0.4 0.8,-0.2 l1.6,-1.0 1.4,-0.6 l2.4,-1.6 0.8,-1.2 l0.4,-1.4 0.4,-4.2 l0.0,-9.2 -0.2,-1.4 l-0.4,-1.6 0.0,-0.4 l-0.2,-0.2 0.0,-0.2 l-1.6,0.0 0.0,-0.2 l-0.2,0.0 0.0,-0.2 l-0.2,0.0 -0.2,-0.6 l-0.4,-0.6 -1.2,-2.4 l-0.8,-1.0 -0.6,-1.2 l-0.8,-1.2 -0.4,-1.2 l-1.6,-2.8 -0.4,-1.4 l-0.6,-1.0 -0.8,-2.2 l-0.4,-1.6 -0.4,-1.0 l-0.8,-3.2 -0.8,-4.2 l-0.4,-4.6 -0.6,-5.0 l0.0,-3.4 -0.2,-1.6 l0.0,-1.4 -0.4,-1.8 l0.0,-1.2 -0.6,-2.8 l-0.2,-1.4 -0.4,-1.0 l-0.4,-1.6 -0.4,-1.2 l-0.2,-0.4 -0.2,-0.2 l-0.2,-0.6 -0.6,-0.8 l-0.2,-0.6 -0.4,-0.4 m-2.4,-3.0 l-0.6,0.0 -1.0,-0.2 l-0.6,-0.2 -1.0,-0.6 l-0.4,0.0 0.0,-0.2 l-0.6,0.0 0.0,0.2 l-0.2,0.0 0.0,0.4 l-0.2,0.0 0.0,0.2 l-0.2,0.0 0.0,0.6 l-0.6,1.0 -0.6,1.2 l0.0,0.4 -0.2,0.4 l-0.2,0.2 0.0,1.2 l-0.2,0.4 0.0,0.4 l-0.4,1.2 0.0,1.2 l-0.2,0.4 0.0,2.2 l0.2,0.6 0.4,0.8 l0.0,0.6 0.2,0.4 l1.4,1.4 0.4,0.2 l0.2,0.2 0.2,0.0 l0.2,0.2 0.4,0.0 l0.2,0.2 3.8,0.0 l0.2,-0.2 0.6,0.0 l0.2,-0.2 0.4,0.0 l0.2,-0.2 0.8,-0.2 l0.2,-0.2 0.0,-0.2 m-43.4,137.3 l0.0,0.0 0.2,0.4 l0.4,0.2 0.0,0.2 l0.4,0.4 0.6,0.2 l1.4,1.0 1.0,0.4 l1.0,0.8 1.2,0.4 l0.2,0.2 0.8,0.0 l0.2,0.2 5.8,0.0 l0.2,-0.4 1.0,-0.4 l1.2,-0.8 -0.2,0.0 l0.0,0.2 -0.2,0.0 l0.0,0.4 -0.6,0.4 l-0.4,1.0 0.0,0.4 l-0.4,0.4 -0.2,0.8 l0.0,1.0 -0.2,0.4 l0.0,3.2 0.2,0.4 l1.2,0.8 1.6,0.6 l0.4,0.4 3.0,1.0 l1.2,0.0 1.4,0.4 l4.0,0.6 3.0,0.0 l3.2,-1.0 0.8,-0.8 l2.4,-1.0 1.0,-0.6 l0.8,-0.8 0.2,-0.4 l0.6,-0.4 0.0,-0.6 l0.4,-0.2 0.4,-0.8 l0.4,-1.8 0.6,-1.4 l0.0,-3.6 -0.6,-0.8 l0.0,-0.6 -1.4,-1.4 l-0.2,0.0 -0.4,-0.8 l-0.4,0.0 -0.6,-0.6 l0.0,-0.2 -0.2,0.0 l0.0,-0.2 -0.4,0.0 l-0.2,-0.4 -0.6,0.0 l-0.2,-0.2 m-20.8,-10.6 l0.0,-0.2 0.6,-0.4 l2.0,-2.2 1.0,-1.4 l0.4,-0.2 0.2,-0.4 l2.4,-2.2 2.8,-1.4 l1.2,-1.0 0.6,-0.2 l0.4,-0.4 2.0,-0.6 l1.2,-0.6 2.2,-0.6 l0.8,-0.4 0.2,-0.4 l0.6,0.0 0.8,-0.4 l1.0,-0.2 5.2,0.0 l0.8,-0.2 4.2,0.0 l0.8,0.2 m-11.8,20.4 l0.2,-0.6 1.4,-1.8 l1.2,-0.8 1.0,-0.4 l0.4,-0.4 1.6,-0.6 l2.6,0.0 1.2,-0.2 l1.6,-0.6 0.2,-0.2 l4.4,0.0 -0.2,0.8 l0.0,1.2 0.2,0.0 l0.2,0.6 0.4,0.2 l2.0,0.2 0.2,0.2 l1.0,0.0 0.8,-0.6 l1.2,-0.4 2.4,-1.8 l0.4,-1.2 1.0,-1.8 l0.0,-0.6 0.4,-0.8 l0.2,-2.4 0.2,-0.4 l0.0,-5.8 -0.2,-0.6 l0.0,-0.8 -0.4,-0.4 l-1.2,-4.0 -0.6,-0.8 l-1.6,-1.2 -0.6,0.0 l-1.2,-0.4 -3.4,-0.2 l-1.2,0.8 0.0,0.4 l-0.4,0.6 0.0,0.4 l-0.4,0.6 0.0,0.4 l-0.2,0.0 0.0,0.8 m-46.0,19.6 l1.6,0.0 2.4,-0.4 l3.8,-1.4 1.0,-0.6 m1.7,155.9 l0.0,0.0 -0.2,-0.4 l-0.2,-0.8 -1.6,-4.6 l-1.8,-4.6 -1.0,-4.4 l-0.8,-4.0 -0.2,-4.6 l0.0,-4.2 0.8,-4.0 l2.0,-2.2 3.0,-0.6 l9.4,0.4 8.4,2.0 l7.0,3.8 4.8,5.2 l2.8,6.4 1.0,4.8 l0.0,3.6 -0.4,4.0 l-1.6,4.2 -2.0,3.6 l-1.4,2.0 -3.8,1.0 l-3.6,0.4 -4.4,0.0 l-6.4,-1.6 -8.4,-4.2 l-6.2,-3.4 -3.6,-2.2 l-2.4,-1.6 -1.0,-1.0 l-0.6,-1.0 0.0,-2.8 l0.8,-2.2 0.4,-0.8 m40.0,-12.4 l-0.2,0.2 0.0,3.8 l0.4,3.8 1.6,4.6 l3.8,7.4 4.0,4.6 l5.0,3.4 5.2,1.6 l5.4,0.0 3.8,-2.0 l2.4,-2.6 1.8,-3.6 l0.8,-4.0 0.0,-4.0 l-1.0,-4.6 -6.4,-10.2 l-3.4,-4.0 -3.6,-3.4 l-3.0,-2.6 -3.4,-2.2 l-3.2,-1.0 -3.6,-0.6 l-3.2,0.0 -2.6,0.6 l-1.4,0.8 -0.6,1.8 l-0.8,3.6 -0.8,5.2 l0.0,1.4 m-26.8,-6.2 l-0.2,-0.6 -1.2,-2.4 l-1.8,-4.6 -4.4,-9.8 l-10.4,-22.6 -4.2,-8.8 l-2.6,-6.4 -1.4,-4.8 l-1.4,-7.0 -0.4,-7.0 l0.0,-2.0 0.2,-0.4 l1.4,-0.6 1.2,-0.4 l2.2,-0.2 3.4,0.2 l8.0,1.2 7.6,2.2 l7.0,3.0 7.4,4.0 l5.6,4.0 3.0,3.0 l3.4,7.2 3.4,8.8 l3.2,8.0 1.6,3.8 l4.4,9.4 0.6,2.2 l0.2,1.4 0.0,6.2 l0.4,3.0 0.4,1.8 l0.0,0.6 m-58.6,-45.4 l0.6,-0.6 4.6,-3.0 l4.4,-2.0 4.2,-1.6 l3.6,-2.2 2.8,-2.8 l1.2,-2.6 0.6,-2.8 l0.0,-3.0 -1.2,-4.0 m-18.2,-0.6 l-0.2,0.0 0.0,0.4 l-0.4,1.8 0.0,3.2 l2.0,9.8 m140.0,-334.4 l0.0,0.0 0.0,-0.6 l1.8,-5.0 1.2,-2.8 l5.0,-9.4 1.0,-2.2 l1.4,-2.4 1.2,-1.8 l0.8,-1.0 0.0,-5.2 m-11.0,21.4 l-0.8,0.0 -0.2,-0.2 l-2.0,-0.8 -2.4,-1.4 l-2.2,-1.8 -0.6,-0.8 l-1.6,-1.2 -1.2,-0.6 l-1.6,-1.6 -3.2,-2.2 l-0.8,-1.0 -0.8,-0.6 l-1.4,-2.8 -0.8,-1.2 l-0.2,-0.8 -0.6,-1.2 l-0.4,-0.6 -0.4,-1.2 l0.0,-0.6 -0.2,-0.8 l0.0,-8.0 -0.4,-0.8 l-0.2,-0.8 0.0,-1.6 l0.8,-0.4 3.6,0.0 l1.2,0.4 1.0,0.0 l0.4,0.2 1.0,0.8 l0.2,0.4 0.6,0.6 l0.4,0.8 0.6,0.6 l0.2,0.4 0.6,0.6 l0.2,0.4 0.4,0.2 l0.8,1.6 0.2,0.2 l0.2,0.0 0.2,0.4 l0.6,0.4 0.4,0.4 l0.4,0.2 0.2,0.2 l0.4,0.2 0.4,0.4 l0.4,0.2 0.2,0.4 l1.0,0.6 2.4,2.0 l0.8,0.8 0.8,0.0 l0.2,0.2 2.2,0.0 l0.4,0.4 0.2,0.0 l0.0,0.2 0.2,0.2 l0.0,0.2 0.2,0.2 l0.0,0.2 0.4,0.2 l0.0,0.2 0.8,0.2 l0.4,0.4 0.4,0.0 l1.2,1.2 0.2,0.4 l0.4,0.2 0.2,0.2 l0.2,0.4 0.4,0.2 l1.0,1.0 1.0,0.6 l1.0,1.0 m-14.5,125.0 l0.0,0.0 0.0,-1.2 l-1.2,-1.2 -1.0,-1.4 l-1.4,-1.6 -1.6,-2.0 l-2.0,-2.0 -4.8,-6.0 l-3.8,-5.8 -2.4,-4.0 l-1.6,-2.0 -1.6,-2.2 l-1.4,-2.2 -1.6,-2.2 l-1.0,-2.4 -1.4,-2.4 l-2.2,-5.2 -1.8,-5.0 l-1.4,-3.0 -0.8,-1.2 l-0.4,-1.0 -2.0,-3.2 l-0.8,-1.8 -0.2,-1.0 l-0.4,-1.2 0.0,-2.6 l0.2,-0.6 0.6,-1.6 l0.4,-0.4 0.6,-1.0 l0.8,-0.6 0.4,-0.4 l0.6,-0.8 2.0,-3.6 l0.4,-0.2 0.2,-0.2 l0.4,0.0 0.4,-0.2 l1.2,0.0 0.6,0.2 l0.4,0.0 0.6,0.4 l0.2,0.4 0.6,0.6 l0.2,0.4 1.0,1.4 l0.4,0.8 0.2,0.6 l0.4,0.6 0.2,0.6 l0.8,1.4 0.2,0.6 l0.4,0.8 0.2,0.8 l0.8,1.6 0.4,1.0 l0.8,1.2 0.4,0.8 l1.0,1.4 0.6,1.0 l2.0,2.6 0.4,0.8 l0.6,0.8 1.2,2.4 l1.6,2.6 1.8,2.6 l1.0,1.0 0.8,1.2 l0.6,1.0 1.0,2.0 l0.8,1.2 0.6,1.2 l0.8,1.2 0.6,1.4 l1.2,1.8 0.6,1.2 l2.4,3.6 0.6,1.2 l1.0,1.0 0.6,1.0 l0.8,1.0 0.8,0.8 l0.6,1.0 1.4,1.8 l1.0,1.0 0.6,0.4 l0.4,0.4 1.2,0.8 l0.4,0.6 0.6,0.6 l0.8,0.6 0.4,0.6 l1.2,1.2 0.2,0.4 l0.2,0.0 0.0,0.2 l0.2,0.2 0.0,0.2 l0.2,0.0 m0.0,0.0 l0.0,-5.0 0.6,-0.8 l0.2,-0.4 1.4,-1.4 l0.6,0.0 0.4,-0.4 l0.8,-0.2 1.6,-0.2 l4.6,0.0 2.2,0.8 l0.8,0.4 0.6,0.6 l0.8,0.4 1.4,1.4 l1.4,1.2 0.8,0.8 l1.2,1.6 1.6,2.4 l0.4,1.6 0.4,1.2 l0.6,3.2 0.0,0.8 l0.2,0.8 0.0,2.4 l-0.4,0.6 -0.4,0.4 l-2.2,1.4 -0.8,0.2 l-0.4,0.0 -0.6,0.2 l-0.8,0.4 -0.6,0.0 l-2.8,0.6 -5.6,0.0 l-0.2,-0.2 0.0,1.0 l0.2,0.4 0.0,1.2 l0.2,0.4 0.0,0.4 l0.2,0.4 0.0,9.2 l-0.2,0.8 -0.4,0.4 l-0.8,1.6 -0.4,0.6 l-0.2,0.6 -0.6,0.8 l-0.8,0.6 -0.4,0.6 l-1.0,0.6 -0.6,0.6 l-1.6,0.4 -4.8,0.8 l-7.0,0.0 -3.0,-0.8 l-1.0,-0.4 -2.4,-1.2 l-1.8,-1.4 -0.4,-0.4 l-0.2,-0.4 -0.2,-0.8 l-0.4,-0.8 -0.8,-2.0 l-0.8,-3.6 0.0,-1.0 l-0.4,-2.4 0.0,-3.4 l0.4,-0.2 0.2,-0.4 l0.2,0.0 0.0,-0.2 l0.4,-0.2 0.4,0.0 l0.8,-0.2 5.6,0.0 l0.2,0.2 0.4,0.0 l1.2,0.4 1.4,0.0 l0.0,-1.0 m-35.8,-71.8 l0.2,0.2 0.0,0.2 l0.2,0.2 0.0,0.6 l0.4,0.4 0.0,0.2 l0.4,1.2 0.4,0.4 l0.4,1.0 0.0,0.2 l0.2,0.0 0.0,0.4 l0.2,0.4 0.2,0.2 l0.0,0.2 0.4,0.4 l0.6,0.0 m19.8,138.7 l0.0,0.0 0.0,-15.8 l1.2,-4.4 0.6,-1.8 l0.8,-1.2 1.0,-1.8 l1.6,-2.4 4.8,-5.8 l1.0,-1.0 1.0,-0.6 l1.6,-0.2 4.2,0.0 l2.6,1.2 1.8,1.4 l1.2,0.8 1.4,1.8 l0.8,1.4 0.6,2.0 l0.4,1.0 1.6,5.4 l0.6,2.8 0.0,12.6 l-0.2,0.8 0.0,4.2 l-0.2,1.0 0.0,1.6 l-0.2,0.2 0.0,0.2 l0.0,-1.2 0.4,-0.4 l0.4,-0.8 1.0,-1.2 l0.8,-0.6 1.0,-1.0 l0.8,-0.6 2.2,-0.8 l2.6,-0.8 2.0,-0.2 l4.4,0.0 0.8,0.4 l1.0,0.8 0.6,1.0 l0.4,1.2 0.2,1.6 l0.0,1.4 -0.2,2.2 l-0.8,2.2 -1.8,3.2 l-2.0,3.0 -2.4,3.2 l-2.8,4.4 -3.4,3.6 l-1.8,1.4 -3.6,3.0 l-4.0,2.4 -0.8,0.4 l-2.4,0.8 -1.8,0.4 l-1.2,0.4 -3.6,0.0 l-1.0,-0.8 -0.6,-1.4 l-0.4,-2.4 -0.2,-2.2 l-0.6,-2.8 -0.2,-0.8 l-0.4,-0.4 0.0,-0.2 l-0.4,-0.4 -2.4,0.0 l-3.2,0.6 -4.6,0.6 l-3.0,0.2 -7.0,0.0 l-5.0,-0.8 -4.0,-1.8 l-2.6,-1.6 -3.2,-3.2 l-1.4,-2.2 -1.2,-3.0 l-0.6,-2.6 -0.2,-1.8 l0.0,-1.0 0.8,-1.0 l1.8,-1.4 3.4,-1.8 l2.4,-0.8 2.6,-0.4 l14.8,0.0 0.4,0.2 l1.4,1.2 m4.4,-20.8 l24.8,0.0 m-12.8,-13.4 l0.0,3.6 m-7.8,104.3 l0.0,0.0 -8.2,3.0 l-5.8,4.6 -3.6,5.8 l-2.6,8.6 2.8,11.2 l7.4,10.6 7.2,3.6 l5.8,0.8 8.6,-1.2 l3.0,-2.4 1.6,-4.0 l-12.4,-4.2 -8.8,-3.4 l-4.6,-7.2 -0.2,-3.2 l7.4,-7.2 3.0,-2.0 l4.2,-5.2 -1.0,-7.0 l-1.2,-1.2 -2.0,-1.6 l-0.8,-0.2 -0.6,0.0 m11.0,31.4 l0.2,0.0 -1.4,0.6 l0.6,4.8 6.8,2.8 l2.2,-1.6 4.0,-0.8 l-3.0,-4.2 -14.4,-0.2 l-0.6,0.8 m-13.0,12.8 l-0.8,0.2 -1.2,1.8 l2.2,4.0 6.4,-0.2 l3.8,-1.2 2.4,-3.8 l-1.0,-1.8 -1.6,-0.6 l-0.2,0.0 m-7.1,68.9 l0.0,0.0 0.0,4.6 l-0.4,1.2 -0.2,1.4 l-0.2,0.8 0.0,1.0 l-0.4,1.6 0.0,12.0 l0.2,1.0 0.0,1.4 l0.2,1.0 0.0,3.4 l-0.6,2.4 0.0,1.6 l-0.4,0.0 -0.2,-0.2 l-0.2,-2.2 0.0,-2.6 l-0.2,-2.6 -0.4,-2.8 l-0.2,-2.2 0.0,-1.8 l-0.2,-1.4 0.0,-6.6 l-0.2,-0.8 0.0,-4.2 l0.2,-0.8 0.2,-0.4 l0.0,-0.4 0.4,-1.0 l0.0,-0.4 0.6,-1.0 l1.0,-4.0 0.4,-1.0 l0.2,-0.8 0.2,-0.4 l0.2,-0.2 0.0,-0.4 l0.2,-0.4 0.0,-0.6 l0.2,-0.6 0.0,-2.0 l0.2,-0.4 0.0,-2.0 l0.2,-0.4 0.0,-0.2 l0.2,-0.2 0.0,-0.2 l0.8,-1.4 0.6,-0.6 l0.4,-0.2 0.2,-0.2 l0.6,-1.0 0.4,-0.2 l0.4,-0.4 3.2,-1.2 l1.2,-0.2 5.8,0.0 l1.4,-0.2 0.8,0.0 l0.2,0.2 0.4,0.0 l1.0,1.0 0.8,1.6 l0.2,1.0 0.4,1.0 l0.2,1.2 0.4,1.2 l0.2,1.8 0.4,1.8 l0.2,0.4 0.0,0.6 l0.2,0.4 0.0,0.6 l0.2,1.4 0.8,2.4 l0.4,1.8 0.6,1.6 l0.4,2.2 0.0,1.0 l0.2,1.0 0.0,4.8 l0.2,0.4 0.0,7.6 l0.2,0.2 0.0,4.8 l0.2,0.4 0.0,1.2 l0.2,0.8 0.0,3.4 l-0.4,0.8 0.0,0.6 l-0.2,0.4 0.0,1.6 l-0.2,0.0 0.0,-0.2 m-21.0,-2.0 l-0.2,0.0 -1.0,-0.6 l-1.2,-1.2 -0.4,-1.0 l-0.8,-0.8 -0.6,-1.0 l-1.0,-0.8 -1.0,-1.0 l-1.8,-1.6 -1.8,-1.4 l-0.8,-0.4 -0.8,-0.2 l-0.2,-0.2 -0.4,0.0 l-1.8,2.4 -0.2,0.6 l-0.4,0.8 0.0,1.2 l-0.2,1.0 0.0,1.6 l1.0,2.8 0.6,2.2 l0.4,0.6 0.6,1.4 l1.6,2.2 0.8,0.8 l1.8,1.0 0.4,0.2 l1.8,0.6 2.0,0.4 l1.0,0.0 0.8,-0.2 l0.6,-0.4 0.4,-1.0 l0.4,-2.0 0.0,-1.8 l0.2,-0.4 0.4,-1.4 l0.2,-0.2 m0.2,-0.4 l0.2,0.0 0.6,-0.8 l1.0,-0.8 2.4,-1.2 l1.0,-0.4 0.8,-0.2 l0.8,-0.4 3.2,-0.8 l1.2,-0.4 1.0,-0.2 l0.6,-0.2 0.2,-0.2 l4.2,0.0 2.2,0.8 l0.2,0.4 0.4,0.2 l0.2,0.0 0.0,0.6 l0.4,1.0 0.2,1.2 l0.4,1.2 0.2,1.2 l0.0,4.0 -0.8,2.2 l-1.4,1.0 -2.0,0.6 l-1.2,0.2 -3.2,0.0 l-0.8,-0.4 -1.0,-0.2 l-1.2,-0.4 -2.0,-0.4 l-1.6,-0.2 -1.6,-0.8 l-0.2,0.0 -0.4,-0.2 l-0.4,0.0 -1.0,-0.4 l-0.8,-0.2 -0.4,0.0 m58.0,-525.8 l0.0,0.0 -1.0,0.0 l-4.0,1.4 -6.6,3.0 l-4.4,3.0 -2.4,2.4 l-2.2,3.2 -1.2,3.2 l-0.6,3.6 0.0,3.4 l0.8,6.0 1.0,12.6 l1.6,5.4 1.8,2.6 l0.6,1.4 4.6,6.4 l2.8,3.0 5.2,3.6 l6.8,-0.2 12.0,-3.6 l3.2,-1.8 1.4,-1.4 l0.4,-3.2 1.6,-3.4 l-0.4,9.2 -0.4,1.8 l-0.8,9.6 0.2,7.8 l1.0,4.4 0.4,5.8 l0.0,7.4 -1.6,5.8 l-0.2,5.6 0.0,4.6 l1.6,7.2 0.2,4.8 l-0.6,3.6 -0.6,7.4 l0.4,10.6 -0.6,2.2 l-0.6,0.8 -1.0,5.4 l0.0,4.8 0.4,0.4 l0.6,3.6 -0.6,0.0 l-0.4,0.4 -5.2,0.0 l-6.0,0.4 -1.4,0.4 l-5.0,0.0 -1.2,2.2 l-1.6,4.2 -0.2,3.0 l1.8,5.6 0.0,0.8 l1.4,3.6 5.6,10.8 l3.2,4.2 3.2,2.4 l5.8,3.2 0.6,0.0 l1.2,0.8 1.4,0.2 l0.8,0.6 2.4,0.4 l1.4,0.6 3.4,0.2 l1.0,-2.4 1.0,-1.4 l1.6,-4.0 -0.2,-0.2 l-0.8,7.4 1.2,0.8 l1.6,0.4 0.2,0.4 l3.2,0.8 4.0,0.0 l5.8,-1.4 0.4,-0.4 l6.8,-2.0 0.2,-0.4 l3.4,-1.0 1.2,-0.8 l1.4,-0.4 8.4,-4.8 l4.0,-3.4 1.6,-1.0 l4.0,-4.0 1.2,-0.8 l0.2,-0.6 0.6,-0.4 l1.0,-2.2 1.0,-3.6 l0.0,-8.4 -0.4,-3.4 l-0.6,-1.4 -1.2,-1.4 l0.0,-0.6 -1.0,-2.0 l-1.8,0.0 -2.8,-0.6 l-1.6,-1.0 0.2,-3.4 l1.6,-2.6 2.2,-4.8 l0.2,-2.6 1.4,-7.6 l0.0,-4.8 -3.0,-10.0 l-0.8,-3.8 -0.6,-5.4 l-0.4,-11.0 -1.2,-7.2 l-1.2,-10.2 -2.8,-10.6 l-0.2,-18.2 4.0,-1.0 l0.6,-0.4 4.8,-1.0 l5.0,-2.2 10.4,-8.0 l3.0,-3.0 3.6,-4.2 l1.4,-1.2 1.6,-2.8 l1.8,-2.0 1.2,-2.6 l1.6,-5.6 0.8,-8.0 l0.0,-7.6 -0.6,-2.6 l-4.8,-7.6 -0.8,-0.4 l-2.4,-2.4 -8.6,-4.4 l-1.4,-0.4 -0.8,-0.6 l-2.8,-0.4 -4.6,-1.8 l-2.6,-0.6 -8.6,-0.2 l-10.4,-1.0 -10.8,0.0 l-1.6,0.6 -4.6,2.6 l-2.4,2.0 -5.6,6.0 l-3.2,5.6 -0.4,2.6 m-34.0,-8.2 l0.6,0.0 2.8,-1.6 l4.8,-1.4 9.6,-0.2 l8.8,1.6 0.6,0.4 l3.2,0.8 0.4,0.4 l0.8,0.0 0.4,0.4 l1.4,0.2 1.4,1.2 m-16.1,211.0 l0.0,0.0 0.4,-0.2 l0.0,-13.8 -1.2,-7.4 l-0.4,-6.8 0.0,-9.8 l0.8,-3.8 1.2,-4.2 l0.8,-3.8 2.6,-5.4 l1.8,-2.8 1.2,-2.4 l1.6,-2.4 2.0,-2.2 l4.0,-4.8 4.4,-3.4 l4.4,-2.2 2.2,-0.8 l1.8,-0.4 5.0,0.0 l2.6,1.4 2.8,1.2 l2.0,1.4 1.8,1.8 l2.0,2.2 2.2,3.4 l1.6,2.8 2.4,6.2 l1.0,5.8 0.6,4.6 l0.8,4.6 0.0,33.2 l-0.6,4.0 -0.4,3.6 l-0.4,4.8 -0.4,2.8 l-0.2,3.0 -0.6,2.8 l-0.4,2.6 0.0,4.0 l-0.2,1.0 0.0,1.0 l-0.2,1.0 0.0,1.8 l-0.2,0.8 0.0,0.6 m-47.4,-29.8 l0.0,1.2 -0.2,2.2 l0.0,3.4 -0.2,2.2 l0.0,5.6 -0.2,3.0 l0.0,2.6 -0.2,1.6 l0.0,5.4 m0.2,1.6 l0.0,-0.6 -0.8,-1.2 l-2.8,-1.6 -2.8,-0.4 l-3.8,-0.4 -7.4,0.0 l-2.8,0.6 -2.4,1.6 l-2.0,1.8 -1.6,1.8 l-0.8,1.8 -0.6,2.4 l-0.4,2.4 0.0,4.6 l0.2,2.4 1.8,3.0 l2.2,1.8 2.8,1.2 l4.6,0.8 4.8,0.6 l14.6,0.0 5.8,-1.6 l0.6,0.0 0.2,-0.2 l0.8,0.0 m43.2,-22.4 l2.0,0.0 3.2,-0.2 l10.2,0.0 5.6,0.8 l2.8,2.4 1.2,1.6 l0.6,2.2 0.0,5.8 l-3.4,7.0 -2.8,2.8 l-4.2,2.4 -4.6,0.6 l-11.6,0.2 -10.4,0.0 m-42.7,28.9 l0.0,0.0 2.4,-1.8 l3.6,-2.0 4.6,-1.2 l2.4,0.0 0.6,0.2 l0.4,0.0 1.6,0.4 l0.4,0.4 0.2,0.4 l0.2,0.2 0.2,0.6 l0.4,0.8 0.2,0.8 l0.4,1.0 0.0,0.6 l-0.2,0.8 -1.2,2.2 l-1.6,2.4 -1.4,1.4 l-0.4,0.6 -0.2,0.0 l0.0,0.2 -0.2,0.0 l-0.2,0.2 -1.6,0.8 l-2.4,0.8 -1.4,0.6 l-1.0,0.2 -1.0,0.6 l-0.2,0.4 -0.6,0.8 l-1.8,2.2 -0.2,0.4 l-0.4,0.4 0.0,0.6 l0.2,0.8 0.2,1.8 l0.8,2.4 0.4,0.8 l0.2,0.8 0.4,0.4 l0.0,0.2 1.8,0.0 l2.2,0.4 1.2,0.4 l0.6,0.0 0.6,0.2 l0.4,0.0 3.8,-1.8 l3.2,-1.4 0.4,-0.4 l0.4,-1.0 0.0,-2.2 l-0.2,-0.4 0.0,-0.6 l-0.8,-1.6 -1.4,-2.0 l-1.6,-1.6 -0.2,-0.4 l-2.0,-1.6 -1.8,-1.6 l-2.4,-1.2 -1.2,-0.4 l-0.6,-0.4 -0.2,0.0 l-1.0,-0.8 -1.0,-0.6 l-0.4,-0.4 0.0,-0.2 l-0.2,0.0 0.0,-0.4 l-0.4,-0.6 -0.4,-0.4 m18.4,0.8 l1.6,0.4 2.0,0.2 l8.6,0.0 m-11.4,6.6 l2.4,0.6 1.6,0.0 l3.0,0.4 5.4,0.0 l0.0,0.2 m4.2,-18.8 l2.2,7.2 1.0,5.6 l0.4,3.4 0.4,2.4 l0.0,1.2 m-3.8,-18.4 l2.0,0.4 1.0,0.0 l2.0,0.4 1.8,0.6 l1.8,1.0 0.8,0.6 l1.6,1.6 1.2,1.4 l0.4,0.8 0.6,1.6 l0.4,1.6 -0.2,2.2 l-0.8,3.6 -0.4,1.4 l-0.8,1.4 -0.6,0.8 l-3.4,1.4 -1.8,0.4 l-1.4,0.2 -0.6,0.0 m-48.8,97.7 l0.0,0.0 1.2,4.0 l0.6,0.8 0.8,1.6 l0.6,0.6 0.2,0.8 l0.6,0.2 0.4,0.6 l1.2,1.0 0.6,0.0 l1.0,0.8 0.8,0.4 l0.6,0.0 0.0,1.0 l-2.4,4.6 -0.2,1.8 l-0.6,0.4 0.0,0.4 l-0.2,0.4 -0.2,0.0 l-0.2,1.6 -1.0,2.8 l-0.2,2.0 -0.6,1.2 l0.0,4.6 0.4,1.6 l1.4,2.4 1.4,2.0 l2.4,2.8 3.4,3.0 l2.4,1.4 2.4,1.2 l6.8,1.2 13.6,0.0 l7.0,-1.8 2.6,-1.0 l6.6,-2.0 0.6,-0.8 l0.8,-2.0 0.0,-3.6 l-0.4,-1.2 -1.6,-3.2 l-1.2,-1.6 -1.0,-0.8 m-54.2,-63.0 l4.8,0.0 4.6,-0.4 l1.6,-0.8 3.6,-0.4 l1.6,-0.4 1.2,-0.6 l2.8,-0.8 1.2,-0.6 l0.6,-0.8 1.8,-0.4 l1.6,-0.8 2.0,-0.4 l0.4,-0.4 0.4,0.0 l1.8,-1.4 4.0,-1.8 l1.6,-0.6 0.4,0.0 l0.4,-0.4 1.0,-0.2 l1.4,-0.8 1.0,-0.8 m29.8,75.2 l0.0,0.2 -0.6,0.4 l-1.2,0.4 -2.0,1.0 l-0.4,0.4 -0.8,0.0 l-6.2,1.4 -2.4,0.2 l-1.2,-1.4 -0.2,-0.4 l0.0,-0.6 -0.2,0.0 l-0.8,-1.2 -0.2,-1.2 l-0.6,-1.0 0.2,0.0 l0.0,0.2 2.8,2.4 l1.2,0.8 m6.2,-28.2 l0.0,0.2 2.0,0.6 l3.2,1.6 1.6,0.6 l2.2,2.6 0.6,1.4 l0.2,0.6 0.4,3.8 l0.4,6.6 0.0,5.4 l-0.6,1.2 -0.4,0.4 l-1.0,0.4 m-6.8,-25.4 l-2.4,0.0 -2.2,-0.8 l-1.0,-1.0 -1.4,-3.0 l-1.0,-3.2 -2.2,-4.0 l-0.6,-1.4 -0.6,-0.8 l-1.0,-2.2 -0.8,-2.8 l-2.4,-5.0 -0.2,-1.0 l-0.6,-0.6 -0.4,-2.4 l-1.0,-2.8 -1.8,-3.2 l-1.2,-3.4 -0.8,-1.4 l0.0,-0.4 -0.4,-0.4 l0.0,-0.2 -0.2,0.0 l0.0,-0.8 -0.4,-0.4 l0.0,-0.4 -0.6,-0.6 l0.0,-0.8 -1.0,-1.6 m-14.8,-12.8 l0.0,0.4 0.8,0.8 l3.4,1.0 0.6,0.4 l0.8,0.2 1.6,0.0 l2.2,0.8 1.2,0.2 l1.0,0.6 1.6,1.6 l0.2,0.4 0.4,0.2 l0.0,0.2 0.2,0.0 l0.6,1.4 0.6,0.6 m-15.8,-9.0 l-2.0,-1.0 -10.6,0.0 l-0.4,0.2 0.0,0.2 l-2.6,4.2 -0.8,0.8 l-0.4,0.0 -2.6,1.2 l-2.6,0.6 -1.0,2.0 l-0.8,1.0 -0.8,2.2 l-0.8,1.0 -0.8,1.6 l-0.4,4.4 0.0,4.0 l0.4,1.0 1.4,2.4 l0.2,1.6 0.4,0.8 l0.2,2.4 0.0,9.8 l0.4,0.8 0.4,1.6 l0.2,2.2 0.6,0.8 l1.0,6.4 m10.8,96.9 l0.0,0.0 -2.6,-1.2 l-2.6,-0.8 -2.4,0.4 l-2.8,1.8 -2.0,2.0 l-1.0,2.0 -0.2,3.0 l0.6,2.8 1.6,2.6 l1.0,1.0 1.8,0.6 l1.2,-0.2 1.8,-0.8 l1.8,-1.6 1.8,-0.6 l0.4,-0.4 1.6,-0.4 l0.6,-0.4 1.2,0.0 l0.0,0.4 -1.2,0.8 l-0.2,0.4 -0.6,0.2 l0.0,0.2 -2.0,1.4 l-1.2,0.4 -0.2,0.4 l-0.6,0.2 -1.4,1.4 l-1.8,4.2 0.6,3.8 l0.2,0.0 0.4,1.0 l1.6,0.8 1.6,0.4 l6.0,-0.2 3.6,-1.2 l0.4,-0.6 1.2,-0.8 l2.2,-3.2 0.2,0.0 l0.6,-1.4 0.2,-1.4 l0.2,0.0 0.0,-4.8 l0.2,0.0 0.2,-0.6 l0.6,-0.6 1.2,-0.6 l4.6,-3.8 5.4,-2.6 l3.8,-3.0 1.6,-1.0 l2.6,-1.0 3.0,-2.2 l4.4,-2.4 1.2,-1.2 l1.8,-1.2 0.4,-1.4 l0.0,-2.2 -1.4,-3.0 l-1.2,-1.2 -1.8,-1.0 l-1.6,-0.4 -1.4,0.2 l-2.2,0.8 -1.0,0.8 l-0.4,0.4 -0.2,1.8 l1.4,1.2 1.8,0.6 l1.4,1.0 0.6,1.0 l0.2,0.0 0.4,1.4 l0.0,1.6 0.2,0.2 m-6.8,-7.8 l-1.4,0.8 -11.4,3.2 l-2.4,1.6 -2.2,0.8 l-1.4,1.2 -2.2,1.2 l-0.4,0.0 -1.4,1.2 l-1.4,1.8 -2.0,1.2 l-1.6,0.6 -0.2,0.4 l-0.8,0.2 -0.4,0.4 l-0.8,0.0 m38.4,-13.4 l0.8,-0.2 0.4,-0.4 l1.0,0.0 m7.4,2.0 l0.8,0.8 1.0,0.0 m-2.6,-9.0 l1.2,-0.8 1.8,-1.8 l0.4,0.0 m1.0,4.8 l0.0,0.2 4.4,0.0 m36.3,-364.2 l0.0,0.0 -0.2,0.0 l-0.6,1.0 -5.4,5.8 l-1.4,1.8 -1.4,2.2 l-0.4,1.2 -1.0,1.6 l-0.2,0.8 -0.2,0.2 l0.0,1.2 1.0,2.0 l2.0,2.4 3.8,2.6 l0.8,0.8 0.8,0.4 l2.0,0.6 3.0,0.6 l3.6,0.2 5.0,0.0 l2.0,-0.2 6.2,-1.2 l0.8,-0.2 2.6,-1.2 l2.2,-1.4 2.6,-2.0 l2.6,-3.6 0.8,-2.0 l0.2,-1.4 0.0,-3.4 l0.2,-0.4 0.0,-2.2 l0.0,0.2 -0.2,0.0 l0.0,0.4 -0.4,0.4 l-0.6,1.8 -0.4,0.6 l-0.4,1.4 -0.2,1.8 l0.6,2.2 1.2,1.6 l0.2,0.6 0.6,0.6 l1.2,1.0 3.4,2.0 l1.4,1.0 2.2,0.2 l2.8,1.0 1.2,0.0 l2.6,0.8 1.0,0.0 l2.0,0.4 4.8,-0.4 l3.2,-0.8 1.0,0.0 l0.8,-0.4 0.4,-0.4 l3.2,-1.2 3.4,-3.0 l1.2,-2.4 0.4,-1.8 l0.0,-3.6 -0.8,-6.2 l-1.0,-2.4 -0.2,-1.2 l-0.6,-1.2 -0.6,-2.0 l-1.0,-2.4 -2.0,-3.8 l-3.8,-3.8 -0.4,-0.6 l-0.4,-0.2 -1.0,-1.4 l-0.4,-0.2 -0.2,-0.4 l-1.4,-1.4 0.0,-0.4 l-0.4,-0.2 -0.4,-0.6 l0.0,-0.6 -0.4,-0.6 l-0.2,-1.0 -0.4,-0.8 l-0.4,-1.4 0.0,-1.4 l-1.0,-4.2 -1.8,-11.8 l-0.2,-2.2 -0.6,-2.0 l0.0,-0.8 -0.4,-1.0 l-1.2,-2.6 -1.6,-2.2 l-0.4,-0.2 -0.4,-0.6 l-0.6,-0.4 -1.6,-2.2 l-2.2,-2.0 -4.4,-2.6 l-0.4,-0.2 -2.2,0.0 l-6.6,1.6 -4.4,2.0 l-0.8,0.6 -0.8,1.0 l-0.4,0.2 -0.8,1.2 l-1.0,2.2 -0.2,2.8 l0.2,1.4 0.0,3.4 l0.2,0.8 0.0,1.4 l0.2,0.6 0.4,4.8 l0.0,9.0 -1.0,3.0 l-0.6,1.2 -0.4,0.2 l-0.2,0.8 -1.2,1.2 l-0.2,0.4 -0.4,0.2 l-0.4,0.8 -3.6,4.8 l-1.4,1.6 -3.4,3.4 l-0.6,0.4 -0.2,0.4 l-2.2,2.2 -0.2,0.4 l-1.0,0.8 -0.6,0.8 l0.0,0.2 -1.6,2.0 l-0.2,0.4 0.0,0.6 m-20.8,68.2 l0.0,0.0 1.8,0.2 l2.8,0.6 6.6,0.4 l20.8,0.0 2.2,-0.2 l2.4,-0.4 5.6,0.0 l2.6,-0.2 3.0,-0.4 l1.0,-0.4 4.2,-0.4 l4.8,-0.8 4.6,-0.4 l3.0,-0.6 5.0,-0.2 l3.8,-0.8 5.6,-0.4 l1.2,-0.4 1.8,-0.2 l2.0,0.0 6.4,-0.4 l2.4,-0.4 14.4,0.0 l3.2,0.4 0.6,0.2 l1.8,1.4 2.6,1.6 l0.4,0.4 0.6,0.4 l1.2,1.2 0.0,0.2 l1.2,2.4 0.0,0.2 l0.4,0.4 0.0,0.4 l-0.2,0.8 0.0,3.2 l-0.2,0.8 -0.4,0.4 l-0.4,0.2 -0.8,0.8 l-1.8,1.0 -0.8,0.6 l-1.2,0.6 -1.2,0.4 l-1.2,0.6 -2.2,0.8 l-1.4,0.2 -1.6,0.6 l-4.8,0.4 -31.6,0.0 l-5.2,0.8 -21.8,0.0 l-2.4,0.6 -2.8,0.2 l-2.4,0.4 -2.4,0.0 l-1.2,0.4 -2.4,0.0 l-2.0,0.4 -1.0,0.0 l-1.0,0.2 -1.0,0.0 l-1.6,0.6 -1.0,1.0 l-2.2,1.0 -0.6,0.2 l-0.6,0.6 -0.6,0.2 l-0.2,0.2 0.0,1.0 l-0.2,1.4 -0.2,0.8 l0.0,5.2 -0.4,0.8 l-0.8,0.8 -0.4,0.6 l-0.6,0.4 -2.0,0.6 l-1.2,0.6 -3.2,1.0 l-1.2,0.6 -11.0,0.0 l-0.4,-0.2 -0.2,-0.2 l-0.4,-0.2 -0.4,-0.8 l-0.4,-0.4 -0.8,-1.6 l-0.4,-1.6 0.0,-1.0 l-0.2,-0.4 0.0,-0.8 l-0.6,-0.6 -0.2,-1.6 l-0.2,-0.2 0.0,-0.4 l-0.2,-0.4 -0.2,-0.2 l0.0,-0.4 -0.2,-0.2 l-0.2,-0.4 -0.2,-0.8 l-0.4,-0.4 -0.2,-0.4 l0.0,-1.4 -1.0,-1.0 l-8.6,0.0 m19.6,-19.2 l-6.2,0.0 -0.8,0.2 l-14.2,0.0 m76.8,126.0 l0.0,0.0 -6.2,0.0 l-0.6,0.4 -1.8,1.6 l-1.0,1.4 -0.4,0.8 l0.0,4.2 1.0,2.8 l1.2,2.0 1.4,1.6 l4.4,2.8 1.4,1.2 l1.8,1.0 2.8,1.0 l6.6,3.4 0.6,0.2 l0.6,0.0 0.6,0.2 l0.8,-0.6 0.4,-1.2 l0.2,-1.8 0.0,-8.6 l-0.2,-1.0 -0.8,-2.4 l-0.8,-1.2 -0.8,-1.0 l-0.4,-0.8 -1.6,-2.2 l-0.4,-0.8 -0.6,-0.6 l-0.8,-0.6 -0.4,-0.2 l-0.8,-0.6 -1.0,-0.4 l-1.0,0.0 -0.6,-0.2 l-1.2,0.0 -0.2,0.4 l-0.2,0.0 -0.2,0.2 l-0.2,0.0 -0.2,0.2 l0.0,-0.2 2.4,0.0 l2.2,0.4 1.0,0.0 l0.6,0.2 0.6,0.0 l3.0,1.2 0.2,0.2 l0.4,0.2 3.8,0.0 l0.4,-0.2 0.6,-2.2 l0.4,-2.2 0.0,-1.0 l0.2,-1.2 0.0,-4.2 l-0.2,-0.4 -1.0,-1.0 l-0.6,-0.2 -0.6,-0.6 l-0.8,-0.4 -0.8,-0.6 l-1.2,-1.2 -1.0,-1.2 l-0.8,-0.8 -0.8,-0.4 l-0.4,0.0 -0.4,-0.2 l-1.2,0.0 -1.0,0.2 l-0.8,0.6 -0.8,0.4 l-2.2,2.2 -0.6,1.0 l-1.4,1.4 -0.8,1.2 l-0.4,0.4 -0.8,1.6 l-0.2,0.0 -0.2,0.6 l0.0,0.6 -0.2,0.2 l0.0,3.2 0.2,0.2 l0.0,0.2 0.2,0.0 m-9.2,4.2 l-2.0,-0.4 -0.6,-0.4 l-0.6,-0.6 -0.8,-0.4 l-0.6,-0.8 -2.2,-2.2 l-2.8,-3.2 -2.0,-2.6 l-0.4,-0.8 -1.0,-1.4 l-1.0,-1.6 -1.2,-2.4 l-2.8,-4.6 -1.0,-2.2 l-0.4,-1.2 -0.2,-1.4 l0.0,-5.2 0.4,-1.8 l1.0,-2.4 0.8,-1.6 l1.0,-1.4 5.6,-9.0 l2.6,-2.8 0.2,-0.4 l0.4,-0.2 0.6,0.0 l1.0,-0.2 4.6,-0.6 l2.4,-0.2 2.6,0.0 l1.8,0.2 1.0,0.6 l1.4,1.0 1.8,1.8 l1.0,0.6 1.6,2.4 l0.2,0.8 0.4,1.0 l0.0,0.6 0.4,0.8 l0.0,0.6 0.2,0.6 l0.0,1.0 -0.4,0.4 l-0.6,1.2 -0.4,0.4 l-0.2,0.0 -0.4,0.4 l-0.2,0.0 -0.6,0.8 l-0.4,0.2 -0.8,0.8 l-0.4,0.2 0.0,0.2 l-1.0,0.0 -0.8,0.4 l-1.2,1.2 -0.8,1.4 l0.0,0.4 -0.6,1.4 l-0.4,0.6 0.0,0.6 l-0.2,0.6 0.0,0.4 l-0.2,0.4 0.0,1.6 l0.4,0.8 0.0,0.2 l0.6,0.6 1.8,2.8 l0.4,0.4 0.2,0.4 l0.8,0.8 0.4,0.6 l0.4,0.4 0.0,0.2 l0.4,0.4 0.2,0.4 l0.4,0.2 0.2,0.4 l0.2,0.0 0.0,0.2 l0.4,0.4 0.2,0.0 l0.0,0.2 0.2,0.2 l0.2,0.0 0.2,0.2 l0.4,0.0 0.0,0.2 l0.2,0.0 0.0,0.2 m-9.8,-25.6 l0.0,-0.2 0.6,-1.2 l0.2,-0.6 0.4,-0.8 l0.0,-0.2 0.2,0.0 l0.0,-0.2 0.2,-0.2 l0.8,-1.6 0.0,-0.2 l0.2,0.0 0.0,-0.2 l0.6,-0.6 0.0,-0.2 l0.2,0.0 0.0,-0.6 l0.2,0.0 m-40.3,152.6 l0.0,0.0 0.2,-0.4 l2.4,-3.4 2.6,-2.4 l4.8,-6.6 2.4,-2.6 l13.4,-10.2 1.8,-1.2 l8.0,-4.4 5.0,-3.4 l5.8,-3.0 3.0,-1.8 l3.0,-1.4 2.4,-0.8 l5.6,-2.6 2.6,-1.4 l1.0,-1.2 2.4,-2.4 l3.8,-3.6 2.8,-1.8 l2.2,-1.6 2.0,-1.8 l1.4,-1.0 1.2,-0.6 l0.8,-0.2 0.2,0.0 l0.4,0.2 5.0,6.2 l6.0,6.4 3.2,3.6 l1.2,0.8 0.0,0.4 l-1.4,0.6 -2.2,1.6 l-8.4,5.4 -2.4,2.2 l-9.8,8.2 -10.0,8.6 l-7.4,5.4 -5.6,2.4 l-10.6,6.0 -8.4,2.8 l-10.2,4.6 -3.8,1.6 l-2.6,1.4 -3.2,2.0 l-2.8,0.4 -3.4,1.2 l-2.4,1.0 -2.4,1.8 l-0.4,0.0 -0.8,-2.2 l0.0,-2.2 1.4,-4.2 l0.4,-1.0 0.0,-2.0 l-3.0,0.0 -1.0,0.4 l-2.6,1.8 -1.2,1.0 l-5.0,5.0 -4.4,2.4 l-1.2,1.2 -1.0,0.4 l0.0,0.2 0.6,1.0 l1.4,1.2 1.0,1.4 l0.8,0.8 0.2,0.4 l0.2,0.2 0.0,0.2 l0.6,0.0 0.0,-0.2 l1.4,-0.8 2.0,-1.6 l0.8,-0.2 2.0,-1.4 l3.0,-2.8 0.8,-0.6 l2.0,-1.0 1.0,-0.4 l5.0,-0.6 0.2,0.2 l-0.8,0.6 m-2.9,65.1 l0.0,0.0 1.0,-0.4 l1.6,-0.4 6.4,-2.0 l6.8,-2.0 2.0,-0.4 l7.6,-2.2 7.0,-2.2 l6.4,-1.8 3.2,-0.4 l4.0,-0.8 5.6,-1.2 l4.8,-1.4 0.4,0.0 l7.2,-3.2 4.8,-1.2 l3.8,0.0 2.8,1.0 l2.2,1.4 0.2,0.6 l1.0,2.0 0.4,2.6 l0.0,5.6 -0.8,1.6 l-2.6,3.0 -0.2,0.6 l-2.2,1.6 -3.2,1.4 l-1.8,0.6 -2.8,0.8 l-3.0,0.0 -2.8,0.4 l-6.8,0.0 -6.6,0.6 l-1.8,0.6 -13.8,3.0 l-2.4,0.2 -0.8,0.2 l-0.6,0.2 -0.2,0.2 l-0.8,0.2 -1.0,0.8 l-0.6,0.0 -1.6,0.4 l-0.8,0.6 -0.8,0.2 l-0.6,0.0 -0.6,0.2 l0.0,0.6 0.4,0.4 l1.8,3.0 1.0,2.4 l0.0,2.0 -0.4,1.4 l-0.6,1.4 -1.6,1.6 l-1.6,0.8 -1.0,0.6 l-2.0,0.8 -2.0,0.2 l-1.6,0.0 -4.2,-1.6 l-1.6,-1.0 -3.0,-2.6 l-3.2,-2.6 -1.4,-1.0 l-1.0,-1.0 0.0,-6.8 l0.2,-0.8 0.0,-2.8 m59.2,-21.2 l0.0,0.4 0.6,1.4 l0.4,1.8 0.6,1.0 l0.4,2.2 0.4,1.0 l0.2,1.0 0.0,1.2 l0.2,0.8 0.0,1.2 l0.6,1.4 0.0,1.6 l0.2,0.4 0.2,0.8 l0.0,0.6 m70.0,-414.9 l0.0,0.0 0.0,5.2 l0.2,1.6 0.4,1.8 l0.0,0.6 0.4,1.8 l0.0,9.0 0.4,2.6 l0.0,1.0 0.2,0.6 l0.0,0.4 0.2,0.4 l0.0,2.0 0.2,0.4 l0.0,0.6 0.2,0.4 l0.0,0.8 0.2,0.2 l0.2,0.4 0.0,0.2 l0.4,1.2 0.2,0.2 l0.0,0.8 0.0,-0.2 l0.2,0.0 0.0,0.4 l0.2,0.4 0.2,1.6 l1.0,2.2 0.0,0.4 l0.2,0.6 0.4,0.4 l0.4,0.8 0.0,0.8 l0.4,0.2 0.2,0.4 l0.0,0.2 0.2,0.2 l0.0,0.2 0.6,0.0 l0.0,0.2 1.2,0.0 l0.4,-0.2 0.6,0.0 l0.6,-0.4 0.4,-0.4 l0.2,0.0 0.2,-0.2 l0.0,-0.4 0.4,0.0 l0.2,-0.8 0.2,0.0 l0.0,-0.2 0.2,-0.2 l0.0,-0.2 0.2,-0.2 l0.4,-0.8 0.0,-4.2 l-0.2,-0.6 -0.2,-1.4 l-0.8,-2.2 -0.6,-3.2 l-0.2,-0.2 0.0,-0.2 l-0.2,-0.2 0.0,-2.0 l-0.4,-3.0 0.0,-11.8 l-0.2,-1.0 0.0,-6.0 l-0.2,-0.4 0.0,-1.4 l-0.4,0.0 0.0,0.2 l-0.4,0.6 -0.2,0.0 m-1.4,35.8 l0.0,-0.2 0.6,0.0 l0.4,-0.4 1.0,0.0 l0.4,-0.2 0.4,0.0 l0.2,-0.2 0.8,0.0 l0.2,-0.2 0.2,0.0 l0.0,-0.2 m-15.6,-38.4 l-0.2,0.2 0.0,0.4 l-0.6,2.0 -0.4,0.8 l-0.2,0.8 -0.4,0.8 l0.0,0.6 -0.2,0.8 l0.2,1.0 0.0,1.0 l0.2,0.4 0.0,0.6 l0.2,0.4 0.0,0.4 l0.2,0.8 0.4,0.8 l0.0,0.2 0.4,0.8 l0.0,0.2 0.6,1.4 l0.0,0.4 0.2,0.0 l0.2,0.2 0.2,0.4 l0.6,0.2 0.2,0.4 l0.6,0.2 1.0,0.0 l0.0,-0.2 0.2,0.0 l0.0,-0.2 m12.4,-2.2 l0.4,0.0 1.6,0.6 l0.8,0.2 0.6,0.4 l1.2,0.2 2.6,0.0 l0.4,-0.2 1.0,-0.8 l0.8,-0.8 0.0,-0.6 l0.2,-0.4 0.2,-1.4 l-0.4,-4.2 0.0,-3.4 l-0.4,-1.4 0.0,-0.6 l-0.2,-0.2 0.0,-0.2 l-0.4,-0.8 -0.2,0.0 l-0.2,-0.2 -0.2,-0.4 l0.0,-0.2 -0.4,-0.4 l-0.4,-0.2 -0.2,0.0 l-0.6,-0.6 0.0,-0.2 l-0.4,0.0 -0.4,-0.2 l-0.4,0.0 -0.6,-0.6 l-0.2,0.0 0.0,-0.2 l-0.2,0.0 -0.2,-0.4 l-0.2,0.0 0.0,-0.2 l-0.2,0.0 m-36.0,111.4 l0.0,0.0 0.2,-0.2 l0.4,0.0 0.4,-0.2 l7.4,-1.0 3.2,-0.6 l2.8,-0.4 19.8,0.0 l3.0,0.4 6.0,1.6 l4.8,1.6 4.8,2.6 l1.6,1.0 0.8,0.2 l0.8,0.4 0.8,0.8 l0.0,0.2 0.4,0.8 l0.0,2.8 -0.4,0.2 l-0.4,0.4 -0.4,0.2 l-1.0,0.2 -0.6,0.4 l-0.8,0.2 -1.0,0.0 l-0.8,0.4 -1.0,0.2 l-1.4,0.6 -3.4,0.4 l-2.6,0.0 -1.6,0.4 l-4.2,0.4 -2.6,0.6 l-1.4,0.0 -3.2,0.4 l-16.6,0.0 0.0,0.8 l0.2,0.2 0.0,0.2 l1.2,1.2 0.2,0.4 l0.4,0.4 0.4,1.0 l0.6,0.8 0.2,0.8 l0.0,5.6 -0.6,1.2 l-0.4,0.2 -1.8,0.4 l-1.0,0.2 -3.8,0.0 l-1.2,-0.2 -3.2,-1.0 l-1.4,-0.8 -0.4,-0.6 l-0.2,-0.6 -0.4,-1.4 l-0.2,-1.4 -0.2,-0.6 l0.0,-3.6 m22.5,99.7 l0.0,0.0 0.0,-3.4 l0.2,-0.8 0.0,-0.4 l0.2,-0.6 0.0,-0.4 l0.2,-0.4 0.0,-0.8 l0.4,-1.0 0.0,-1.4 l0.8,-1.6 0.4,-0.4 l0.4,-1.2 0.4,-0.4 l0.2,-0.8 0.6,-1.0 l0.2,-0.8 1.8,-2.8 l0.4,-0.4 0.4,-0.6 l0.8,-1.4 2.2,-2.2 l2.0,-0.8 2.6,0.0 l0.4,0.4 0.2,0.0 l0.0,0.2 0.6,0.6 l0.4,1.0 0.0,2.6 l-0.2,0.6 0.0,0.8 l-0.2,0.4 0.0,0.6 l-0.2,0.6 0.0,0.8 l-0.2,0.2 -0.2,0.6 l0.0,1.0 -0.2,0.4 l0.0,0.2 -0.2,0.0 l-0.2,0.4 0.0,0.2 l-0.2,0.2 0.0,0.6 l-0.2,0.2 0.0,0.2 l-0.2,0.4 0.0,0.6 l-0.4,0.6 0.0,0.2 l-0.2,0.4 0.0,0.4 l-0.4,1.2 0.0,0.4 l-0.4,1.0 0.0,1.2 l-0.2,0.4 0.0,0.6 l-0.2,0.2 0.0,0.6 l-0.2,0.4 0.0,1.0 l-0.2,0.2 -0.2,0.0 l0.0,0.8 -0.2,0.4 l0.0,0.4 -0.2,0.2 l0.0,0.4 -0.2,0.2 l0.0,0.6 -0.2,0.2 l0.4,0.0 0.2,-0.2 l0.6,0.0 0.2,-0.2 l2.6,0.0 0.2,0.2 l0.2,0.0 0.6,0.6 l0.0,0.2 0.6,0.6 l0.0,0.2 0.2,0.0 l0.0,0.2 0.2,0.4 l0.2,0.2 0.0,0.6 l0.4,1.0 0.0,1.0 l0.2,0.4 0.0,2.6 l-0.4,0.4 -0.4,0.2 l0.0,0.2 -0.4,0.2 l-0.2,0.0 0.0,0.2 l-0.8,0.4 -0.2,0.0 l-0.6,0.4 -0.2,0.0 l-0.4,0.4 -0.8,0.4 l-0.8,0.2 -0.4,0.4 l-0.4,0.0 -0.4,0.2 l-0.4,0.0 -0.2,0.2 l-3.6,0.0 -0.2,-0.2 l-0.4,0.0 -0.2,-0.2 l-0.2,-0.4 -0.4,-0.4 l-0.2,-0.4 -0.4,-0.2 l0.0,-0.2 -0.4,-0.4 l0.0,-0.2 -0.4,-0.8 l0.0,-0.2 -0.2,-0.2 l-0.2,0.0 0.0,-1.0 l0.2,-0.2 0.0,-0.4 l0.2,0.0 0.0,-0.2 l-0.2,0.0 -0.8,0.8 l-0.4,0.0 0.0,0.2 l-0.2,0.2 -0.2,0.0 l0.0,0.2 -0.4,0.2 l-0.2,0.0 -0.2,0.2 l-0.4,0.2 -1.4,0.0 l-0.6,0.2 -0.4,0.0 l-0.8,0.2 -3.2,0.0 l-0.4,-0.4 -0.4,-0.2 l-0.4,-0.4 -0.2,-0.4 l-0.2,-0.8 -0.4,-0.6 l0.0,-0.6 -0.4,-0.6 l-0.4,-1.2 -0.6,-1.0 l-0.4,-1.2 0.0,-3.2 l0.2,0.0 0.0,-0.2 l0.6,0.0 0.4,-0.2 l7.2,0.0 0.2,0.2 l1.0,0.0 m-70.9,76.8 l0.0,0.0 -2.6,0.6 l-2.0,0.8 -1.8,1.0 l-2.4,2.0 -2.0,3.0 l-1.8,3.4 -1.0,3.4 l-0.4,3.2 0.8,3.0 l1.6,2.0 2.6,1.4 l3.2,0.4 3.2,-0.4 l3.4,-1.2 3.0,-2.0 l3.0,-2.2 2.2,-2.6 l2.2,-2.8 1.2,-2.6 l0.6,-2.6 -0.4,-2.2 l-1.0,-2.0 -1.6,-2.0 l-2.0,-1.6 -2.4,-1.4 l-2.6,-1.0 -2.6,-0.6 l-2.4,0.2 m-0.2,27.0 l-1.8,0.0 -1.8,0.2 l-3.8,1.4 -3.8,3.4 l-1.2,2.6 -1.0,2.8 l-0.6,3.0 0.2,3.0 l0.8,2.8 1.4,2.2 l2.4,1.6 3.0,0.6 l3.2,0.0 3.8,-0.8 l3.8,-1.4 3.6,-1.6 l3.2,-1.8 3.0,-2.2 l2.0,-2.4 1.6,-2.6 l0.6,-2.6 0.0,-2.4 l-0.6,-2.4 -1.4,-2.4 l-1.8,-2.2 -2.4,-1.8 l-3.2,-1.4 -3.2,-0.8 m12.0,-11.2 l0.0,0.4 0.0,-0.2 l-0.2,0.0 0.0,-0.2 l-0.2,-0.2 -0.4,0.0 l-0.2,-0.2 -0.4,0.0 l-0.4,-0.2 -0.2,0.0 l0.2,-0.2 2.2,-0.6 l2.0,-0.4 2.4,-0.4 l2.6,-0.2 7.6,-1.4 l8.4,-1.4 8.0,-1.0 l4.0,-0.2 3.6,0.0 l3.4,0.2 8.6,1.0 l8.6,0.6 8.4,0.0 l3.6,0.2 6.8,0.8 l3.0,0.6 2.6,0.8 l2.4,1.0 2.0,1.2 l1.8,1.2 2.8,2.8 l1.8,2.6 0.2,1.4 l0.0,1.0 -0.2,1.0 l-0.6,0.6 -0.8,0.6 l-5.6,1.8 -3.2,0.6 l-5.8,1.6 -2.6,0.8 l-4.6,1.6 -2.2,0.4 l-2.0,0.2 -2.2,0.0 l-2.6,-0.2 -3.0,-0.6 l-3.2,-0.4 -11.0,-1.2 l-3.8,0.0 -3.6,-0.2 l-7.0,0.4 -6.6,0.8 l-3.0,0.6 -2.6,0.4 l-5.0,0.4 -2.2,0.0 l-2.2,-0.2 -2.2,0.0 l-1.8,-0.2 -1.8,0.2 l-1.4,0.0 m100.0,-17.8 l1.0,-1.2 6.0,-4.2 l5.8,-3.4 8.2,-4.0 l9.4,-3.6 9.2,-2.4 m-31.2,18.2 l2.6,-0.8 3.0,-0.6 l6.0,-1.6 7.6,-1.4 m-18.8,9.0 l1.0,-0.4 2.8,-0.8 l5.0,-1.2 6.0,-1.6 l7.2,-1.2 7.8,-0.8 l8.8,0.0 m-41.4,10.0 l3.8,0.2 4.0,0.4 l4.8,0.8 5.2,1.4 l5.0,1.6 4.8,1.8 l3.8,2.0 m-24.4,-5.8 l3.2,1.0 4.0,1.8 l5.6,3.4 5.0,3.4 l4.6,4.4 2.6,4.2 m-30.8,-15.2 l1.4,0.8 2.0,1.6 l3.8,2.8 4.6,3.8 l4.4,4.6 m-38.2,33.6 l0.0,0.0 0.0,0.4 l-0.8,1.0 -1.2,3.4 l-0.4,2.0 -1.2,5.0 l-0.4,2.2 -1.0,2.6 l-0.6,2.6 0.0,2.0 l-0.4,2.2 0.0,4.2 l-2.8,0.0 -2.0,-0.2 l-5.2,-1.4 -3.4,-0.6 l-3.8,-1.2 -2.8,-0.6 l-3.2,-1.0 -2.8,-0.6 l-2.4,-0.4 -4.4,-1.0 l-9.4,-2.4 -5.6,-1.0 l-9.4,0.0 -2.2,0.2 l-2.8,1.0 -1.0,0.6 l-0.6,0.2 -1.4,1.0 l-1.2,0.6 -0.4,0.6 l-0.4,1.6 0.0,2.6 l0.2,1.6 0.4,1.2 l0.6,1.2 1.6,2.2 l1.0,0.6 2.0,1.6 l4.2,2.8 2.0,0.8 l2.0,1.0 1.2,0.2 l5.0,1.6 0.6,0.4 l9.4,2.8 2.4,0.6 l4.6,1.0 8.8,1.2 l3.8,0.4 0.6,0.2 l8.4,0.0 -0.6,0.6 l-0.2,0.4 -0.4,0.2 l-0.4,0.6 -0.6,0.6 l-0.2,0.4 -0.4,0.4 l-0.2,0.8 -0.4,0.6 l-0.6,2.2 0.0,2.6 l0.4,0.6 0.2,0.6 l1.4,1.4 1.4,0.8 l2.4,1.0 2.0,0.6 l1.8,0.4 1.6,0.8 l0.8,0.6 1.8,0.0 l0.6,-0.2 0.8,-0.4 l0.2,-0.4 1.8,-1.6 l1.8,-1.8 1.0,-2.6 l0.0,-0.6 0.4,-0.8 l0.0,-1.8 -0.6,-1.6 l-0.2,-0.2 -0.4,-0.8 l-0.4,0.0 0.0,-0.2 l-1.4,0.0 0.0,0.2 l0.2,0.0 0.2,0.4 l0.2,0.0 0.4,0.2 l0.8,0.6 0.6,0.2 l1.8,1.8 0.4,1.8 l0.4,2.8 0.0,8.0 l0.4,2.4 0.2,2.8 l0.6,3.8 0.4,0.8 l1.0,2.6 0.8,1.6 l1.8,4.0 1.2,2.4 l1.8,4.6 0.6,2.2 l0.8,1.6 0.6,1.6 l1.8,3.2 " fill="none" stroke="black" stroke-width="1" /></svg>